<?xml version="1.0" encoding="utf-8"?>
<!-- Generator: Adobe Illustrator 27.5.0, SVG Export Plug-In . SVG Version: 6.00 Build 0)  -->
<svg version="1.2" baseProfile="tiny-ps" id="katman_1"
	 xmlns="http://www.w3.org/2000/svg" xmlns:xlink="http://www.w3.org/1999/xlink" x="0px" y="0px" viewBox="0 0 96 96"
	 overflow="visible" xml:space="preserve">
<title>Inanlar Hotel</title>
<g>
	<g>
		<g>
			<g>
				<g>
					<linearGradient id="SVGID_1_" gradientUnits="userSpaceOnUse" x1="31.7278" y1="45.5445" x2="52.9007" y2="45.5445">
						<stop  offset="0" style="stop-color:#E0BC62"/>
						<stop  offset="1" style="stop-color:#9E8651"/>
					</linearGradient>
					<polygon fill="url(#SVGID_1_)" points="52.9,45.2 31.7,19.7 31.7,65.9 31.7,71.4 31.7,71.4 38.6,71.4 38.6,37.7 52.9,55 					
						"/>
					
						<linearGradient id="SVGID_00000121989994973378438080000015494861508457679290_" gradientUnits="userSpaceOnUse" x1="41.0144" y1="50.1199" x2="62.1874" y2="50.1199">
						<stop  offset="0" style="stop-color:#E0BC62"/>
						<stop  offset="1" style="stop-color:#9E8651"/>
					</linearGradient>
					<polygon fill="url(#SVGID_00000121989994973378438080000015494861508457679290_)" points="55.3,62.5 41,45.2 41,55 62.2,80.6 
						62.2,35.4 62.2,35.4 62.2,19.7 55.3,27.9 					"/>
					
						<linearGradient id="SVGID_00000181785793799208899980000014866239837300364461_" gradientUnits="userSpaceOnUse" x1="41.0045" y1="33.4281" x2="52.9" y2="33.4281">
						<stop  offset="0" style="stop-color:#E0BC62"/>
						<stop  offset="1" style="stop-color:#9E8651"/>
					</linearGradient>
					<polygon fill="url(#SVGID_00000181785793799208899980000014866239837300364461_)" points="52.9,26.2 41,26.2 41,26.3 
						52.9,40.6 					"/>
					
						<linearGradient id="SVGID_00000031184075202930282920000015328363516998860191_" gradientUnits="userSpaceOnUse" x1="43.704" y1="17.2748" x2="50.2005" y2="17.2748">
						<stop  offset="0" style="stop-color:#E0BC62"/>
						<stop  offset="1" style="stop-color:#9E8651"/>
					</linearGradient>
					<path fill="url(#SVGID_00000031184075202930282920000015328363516998860191_)" d="M50.2,17.8L47,13.5l-3.2,4.3l3.2,3.2
						L50.2,17.8z M47,16.1l1.1,1.5L47,18.8l-1.1-1.1L47,16.1z"/>
					
						<linearGradient id="SVGID_00000146482116517941212580000016958532645940367549_" gradientUnits="userSpaceOnUse" x1="47.5764" y1="20.2102" x2="52.9" y2="20.2102">
						<stop  offset="0" style="stop-color:#E0BC62"/>
						<stop  offset="1" style="stop-color:#9E8651"/>
					</linearGradient>
					<polygon fill="url(#SVGID_00000146482116517941212580000016958532645940367549_)" points="52.9,23.9 52.9,16.5 47.6,21.9 
						49.5,23.9 					"/>
					
						<linearGradient id="SVGID_00000172407921506548957380000012535295750402258572_" gradientUnits="userSpaceOnUse" x1="41.0045" y1="20.2102" x2="46.3281" y2="20.2102">
						<stop  offset="0" style="stop-color:#E0BC62"/>
						<stop  offset="1" style="stop-color:#9E8651"/>
					</linearGradient>
					<polygon fill="url(#SVGID_00000172407921506548957380000012535295750402258572_)" points="46.3,21.9 41,16.5 41,23.9 
						44.4,23.9 					"/>
					
						<linearGradient id="SVGID_00000069383405376871238540000015073296134192830890_" gradientUnits="userSpaceOnUse" x1="45.6971" y1="23.2103" x2="48.2074" y2="23.2103">
						<stop  offset="0" style="stop-color:#E0BC62"/>
						<stop  offset="1" style="stop-color:#9E8651"/>
					</linearGradient>
					<polygon fill="url(#SVGID_00000069383405376871238540000015073296134192830890_)" points="45.7,23.9 48.2,23.9 47,22.5 					
						"/>
				</g>
			</g>
		</g>
	</g>
	<g>
		<path fill="#1D1D1B" d="M17.1,42.8c0.2,0,0.4,0,0.6,0.1c0.2,0.1,0.3,0.2,0.4,0.4c0.2,0.3,0.3,0.7,0.3,1.3V45v0.6h-4.6v-0.7v-0.3
			c0-0.5,0.1-0.9,0.3-1.1c0.1-0.1,0.2-0.2,0.4-0.3c0.1-0.1,0.3-0.1,0.5-0.1c0.2,0,0.5,0.1,0.8,0.4c0-0.1,0.1-0.1,0.2-0.2
			c0.1-0.1,0.3-0.2,0.4-0.3C16.7,42.8,16.9,42.8,17.1,42.8z M14.5,44.9h1.4c0-0.1-0.1-0.3-0.1-0.5c-0.1-0.2-0.2-0.4-0.3-0.5
			c-0.1-0.1-0.3-0.2-0.4-0.2c-0.2,0-0.3,0.1-0.4,0.1c-0.1,0.2-0.2,0.5-0.2,0.7V44.9z M17.1,43.4c-0.2,0-0.4,0.1-0.6,0.2
			c-0.1,0.1-0.2,0.2-0.2,0.3c0,0.1,0.1,0.1,0.1,0.2c0.1,0.3,0.2,0.5,0.2,0.7h1.2v-0.3c0-0.4-0.1-0.7-0.2-0.9
			C17.5,43.5,17.3,43.4,17.1,43.4z"/>
		<path fill="#1D1D1B" d="M18.1,41c-0.1,0.2-0.3,0.3-0.5,0.4c-0.2,0.1-0.4,0.2-0.7,0.2h-3v-0.7h3c0.3,0,0.5-0.1,0.6-0.3
			c0.1-0.2,0.2-0.4,0.2-0.7c0-0.3-0.1-0.5-0.2-0.7c-0.1-0.2-0.3-0.3-0.6-0.3h-3v-0.7h3c0.3,0,0.5,0.1,0.7,0.2
			c0.2,0.1,0.4,0.2,0.5,0.4c0.2,0.3,0.4,0.7,0.4,1.1C18.4,40.3,18.3,40.7,18.1,41z"/>
		<path fill="#1D1D1B" d="M15.5,36l2.9,0.1l0,0.7l-4.8-0.2l3.2-2.7l-2.9-0.1l0-0.7l4.8,0.2L15.5,36z"/>
		<path fill="#1D1D1B" d="M17.7,28.2l1.2,0.2l0.1,0.2c0,0,0,0,0,0s0,0,0,0c0,0,0,0,0,0c0,0,0,0,0,0c0,0,0,0,0,0c0,0,0,0,0,0s0,0,0,0
			c0,0,0,0,0,0c0,0,0,0,0,0c0,0,0,0,0,0c0,0,0,0,0,0c0,0,0,0,0,0c0,0,0,0,0,0c0,0,0,0,0,0c0,0,0,0,0,0c0.1,0.3,0.1,0.6,0,0.8
			c0,0,0,0,0,0c0,0,0,0,0,0l0,0c0,0,0,0,0,0.1c0,0.2-0.1,0.5-0.3,0.7c0,0,0,0,0,0c0,0,0,0,0,0.1c0,0,0,0.1-0.1,0.1
			c0,0.1-0.1,0.1-0.2,0.2c-0.1,0.2-0.3,0.3-0.5,0.4c-0.2,0.2-0.5,0.3-0.8,0.3c-0.2,0-0.5,0.1-0.7,0c-0.1,0-0.2,0-0.2,0
			c0,0-0.1,0-0.1,0c-0.3-0.1-0.5-0.2-0.7-0.3c-0.2-0.2-0.4-0.4-0.6-0.6c-0.2-0.2-0.3-0.5-0.3-0.8c-0.1-0.3-0.1-0.6,0-0.9
			c0,0,0,0,0-0.1l0,0c0,0,0,0,0,0c0,0,0,0,0,0c0,0,0,0,0-0.1c0.1-0.3,0.2-0.5,0.3-0.7c0,0,0,0,0,0c0,0,0,0,0,0c0,0,0,0,0,0l0.8,0.2
			c-0.1,0.1-0.2,0.2-0.3,0.3c-0.1,0.1-0.1,0.2-0.2,0.3c0,0,0,0,0,0c0,0,0,0,0,0c0,0,0,0,0,0c0,0,0,0,0,0c0,0,0,0.1,0,0.1
			c0,0,0,0,0,0c0,0,0,0,0,0c0,0,0,0,0,0c0,0,0,0,0,0c0,0,0,0,0,0c0,0,0,0,0,0c0,0,0,0,0,0c0,0,0,0,0,0c0,0,0,0,0,0c0,0,0,0,0,0
			c0,0,0,0,0,0c-0.1,0.3,0,0.6,0.1,0.8c0,0,0,0,0,0c0,0.1,0.1,0.2,0.2,0.3c0,0,0,0.1,0.1,0.1c0,0,0,0,0,0c0,0,0.1,0.1,0.1,0.1
			c0,0,0,0,0,0c0,0,0,0,0,0c0,0,0,0,0,0c0.1,0.1,0.3,0.2,0.4,0.3c0,0,0,0,0,0c0.1,0,0.1,0,0.2,0.1c0,0,0,0,0.1,0c0,0,0.1,0,0.1,0
			c0,0,0,0,0.1,0c0.1,0,0.2,0,0.3,0c0.3,0,0.5-0.1,0.7-0.3c0.3-0.2,0.6-0.6,0.7-1c0,0,0,0,0,0c0,0,0,0,0,0c0,0,0,0,0,0c0,0,0,0,0,0
			c0,0,0,0,0,0c0,0,0,0,0,0c0,0,0,0,0,0c0,0,0,0,0,0c0,0,0,0,0,0c0,0,0-0.1,0-0.1c0,0,0,0,0,0c0,0,0,0,0,0c0,0,0,0,0,0c0,0,0,0,0,0
			c0,0,0,0,0,0c0,0,0,0,0,0c0-0.1,0-0.2,0-0.3c0,0,0,0,0,0l-0.8-0.2l-0.2,0.8l-0.6-0.1l0.3-1.5L17.7,28.2z"/>
		<path fill="#1D1D1B" d="M19.6,24.9l-0.6,1.5l0.8,0.7l-0.3,0.7l-3.8-3.5l5.1-0.2l-0.3,0.7L19.6,24.9z M18.9,24.9l-1.5,0l1.1,1
			L18.9,24.9z"/>
		<path fill="#1D1D1B" d="M22.6,21l-0.9,1.7l-0.3,0.6l-4-2.1l0.3-0.6l3.4,1.8l0.9-1.7L22.6,21z"/>
		<path fill="#1D1D1B" d="M23.5,19.3c-0.3,0.2-0.5,0.2-0.8,0.3c-0.3,0-0.6,0-0.9,0c-0.3-0.1-0.6-0.2-0.8-0.4
			c-0.2-0.2-0.5-0.4-0.6-0.7c-0.1-0.3-0.2-0.5-0.3-0.8c0-0.3,0-0.6,0-0.9c0.1-0.3,0.2-0.6,0.4-0.8c0.2-0.2,0.4-0.5,0.7-0.6
			c0.3-0.1,0.5-0.2,0.8-0.3c0.3,0,0.6,0,0.9,0c0.3,0.1,0.6,0.2,0.8,0.4c0.2,0.2,0.5,0.4,0.6,0.7c0.2,0.3,0.3,0.5,0.3,0.8
			c0,0.3,0,0.6,0,0.9c-0.1,0.3-0.2,0.6-0.4,0.8C23.9,19,23.7,19.2,23.5,19.3z M20.8,17.6c0.1,0.4,0.3,0.8,0.6,1
			c0.3,0.2,0.8,0.3,1.2,0.3c0.4-0.1,0.8-0.3,1-0.6c0.2-0.3,0.3-0.8,0.3-1.2c-0.1-0.4-0.3-0.8-0.6-1c-0.3-0.2-0.8-0.3-1.2-0.3
			c-0.4,0.1-0.8,0.3-1,0.6S20.7,17.2,20.8,17.6z"/>
		<path fill="#1D1D1B" d="M29,13.7l-2.7-1.2l1,2.8l-4.8-2.1l0.6-0.5l3,1.3l-0.7-1.9L25,11.2l0.9,0.4l1.9,0.9l-1.1-3l0.6-0.5L29,13.7
			z"/>
		<path fill="#1D1D1B" d="M40.3,7.6l-0.7,0.2L39,6l-1.7,0.6l0.6,1.9l-0.7,0.2l-1.4-4.3l0.7-0.2l0.6,1.8l1.7-0.6l-0.6-1.8l0.7-0.2
			L40.3,7.6z"/>
		<path fill="#1D1D1B" d="M42.7,6.9c-0.3-0.1-0.6-0.2-0.8-0.4c-0.2-0.2-0.4-0.4-0.6-0.6C41.2,5.6,41.1,5.3,41,5c0-0.3,0-0.6,0-0.9
			c0.1-0.3,0.2-0.5,0.4-0.8c0.2-0.2,0.4-0.4,0.6-0.6c0.3-0.2,0.5-0.3,0.8-0.3s0.6,0,0.9,0c0.3,0.1,0.5,0.2,0.8,0.4
			c0.2,0.2,0.4,0.4,0.6,0.6c0.2,0.3,0.3,0.5,0.3,0.9c0,0.3,0,0.6,0,0.9c-0.1,0.3-0.2,0.6-0.4,0.8c-0.2,0.2-0.4,0.4-0.6,0.6
			c-0.3,0.2-0.5,0.3-0.9,0.3C43.3,7,43,7,42.7,6.9z M42,3.8c-0.2,0.3-0.4,0.7-0.3,1.2c0.1,0.4,0.3,0.8,0.6,1
			c0.3,0.2,0.7,0.4,1.2,0.3c0.4-0.1,0.8-0.3,1-0.6c0.2-0.3,0.4-0.7,0.3-1.2c-0.1-0.4-0.3-0.8-0.6-1c-0.3-0.2-0.7-0.4-1.2-0.3
			C42.6,3.2,42.3,3.4,42,3.8z"/>
		<path fill="#1D1D1B" d="M49.5,2.7l-1.3,0l0,3.9l-0.7,0l0-3.9l-1.3,0l0-0.6l3.2,0L49.5,2.7z"/>
		<path fill="#1D1D1B" d="M51.6,4.1l1.6,0.2L53.2,5l-1.6-0.2l-0.2,1.4l2,0.3L53.3,7l-2-0.3l-0.7-0.1l0.6-4.5l0.7,0.1l2,0.3l-0.1,0.6
			l-2-0.3L51.6,4.1z"/>
		<path fill="#1D1D1B" d="M57,8l-1.8-0.5l-0.7-0.2l1.1-4.4l0.7,0.2l-1,3.8l1.8,0.5L57,8z"/>
		<path fill="#1D1D1B" d="M66.5,13l-0.7-0.5l0-1.9l-0.4-0.3l-0.9,1.3l-0.6-0.4l2.6-3.7L67,7.8l0.6,0.4c0.5,0.3,0.6,0.7,0.7,1
			c0,0.4-0.1,0.7-0.3,1.1c-0.2,0.3-0.6,0.6-0.9,0.6c-0.2,0-0.4,0.1-0.6,0L66.5,13z M66.2,10.2c0.2,0.2,0.5,0.2,0.7,0.2
			c0.2-0.1,0.4-0.2,0.5-0.4c0.1-0.2,0.2-0.4,0.2-0.6c0-0.2-0.2-0.4-0.4-0.6l-0.5-0.4l-1,1.4L66.2,10.2z"/>
		<path fill="#1D1D1B" d="M69.5,12.1l1.2,1.1l-0.4,0.5l-1.2-1.1l-1,1l1.5,1.4l-0.4,0.5l-1.5-1.4l-0.5-0.5l3.1-3.3l0.5,0.5l1.5,1.4
			l-0.4,0.5l-1.5-1.4L69.5,12.1z"/>
		<path fill="#1D1D1B" d="M72.2,17.6c-0.4,0.2-0.9,0.1-1.3-0.2c-0.1-0.1-0.1-0.1-0.2-0.2c-0.1-0.1-0.2-0.3-0.3-0.5
			c-0.1-0.3-0.1-0.6,0-1l0.7,0.1c0,0.2,0,0.4,0,0.6c0,0.1,0.1,0.3,0.2,0.3c0.2,0.2,0.4,0.2,0.6,0.1c0.2-0.1,0.2-0.3,0.3-0.5
			c0-0.3,0.1-0.7,0.1-0.8l0-0.8c0-0.2,0.1-0.4,0.2-0.6c0.1-0.2,0.3-0.3,0.4-0.4c0.2-0.1,0.4-0.1,0.6-0.1c0.2,0,0.4,0.1,0.5,0.3
			c0.2,0.1,0.3,0.3,0.4,0.5c0.1,0.2,0.1,0.5,0,0.8l-0.7-0.1c0.1-0.4-0.1-0.5-0.2-0.6c-0.1-0.1-0.3-0.1-0.4-0.1
			c-0.1,0-0.2,0.1-0.2,0.4L72.9,16c0,0.2,0,0.3,0,0.5c0,0.3-0.1,0.5-0.2,0.7C72.6,17.4,72.4,17.5,72.2,17.6z"/>
		<path fill="#1D1D1B" d="M77,19.3l-0.7-1l-3.3,2.1l-0.4-0.6l3.3-2.1l-0.7-1l0.5-0.3l1.8,2.7L77,19.3z"/>
		<path fill="#1D1D1B" d="M75.9,23.6l-0.7-1.5l-1,0.1l-0.3-0.7l5.2-0.3l-3.4,3.9l-0.3-0.7L75.9,23.6z M76.4,23.1l1-1.1l-1.5,0.1
			L76.4,23.1z"/>
		<path fill="#1D1D1B" d="M76.3,26.1c0.1-0.2,0.2-0.4,0.3-0.5c0.2-0.2,0.4-0.3,0.6-0.4l2.9-0.9l0.2,0.7l-2.9,0.9
			c-0.3,0.1-0.4,0.2-0.5,0.5c-0.1,0.2-0.1,0.5,0,0.7c0.1,0.3,0.2,0.5,0.4,0.6c0.2,0.1,0.4,0.2,0.7,0.1l2.9-0.9l0.2,0.7l-2.9,0.9
			c-0.2,0.1-0.5,0.1-0.7,0.1c-0.2,0-0.4-0.1-0.6-0.2c-0.3-0.2-0.6-0.6-0.7-1C76.1,26.9,76.1,26.5,76.3,26.1z"/>
		<path fill="#1D1D1B" d="M77.5,33.3l-0.1-0.8l1.3-1.4l-0.1-0.5l-1.5,0.2L77,30.1l4.5-0.7l0.1,0.6l0.1,0.7c0.1,0.6-0.1,1-0.3,1.2
			c-0.2,0.3-0.6,0.5-1,0.5c-0.4,0.1-0.8,0-1.1-0.2c-0.1-0.1-0.3-0.2-0.4-0.5L77.5,33.3z M79.4,31.1c0,0.3,0.2,0.5,0.3,0.6
			c0.2,0.1,0.5,0.1,0.6,0.1c0.2,0,0.4-0.1,0.6-0.3c0.1-0.2,0.2-0.4,0.1-0.7L81,30.2l-1.7,0.3L79.4,31.1z"/>
		<path fill="#1D1D1B" d="M78.6,36.7l0-1.6l-1-0.4l0-0.8l4.8,1.9l-4.7,2l0-0.8L78.6,36.7z M79.2,36.4l1.4-0.6l-1.4-0.5L79.2,36.4z"
			/>
		<path fill="#1D1D1B" d="M80.6,39.7h-2.9V39h4.8l-3.1,2.9h2.9v0.7h-4.8L80.6,39.7z"/>
		<path fill="#1D1D1B" d="M81.5,46.9v-1.3h-3.9V45h3.9v-1.3h0.6v3.2H81.5z"/>
	</g>
	<g>
		<path fill="#1D1D1B" d="M18.4,66.8l0.4,1.8l-0.7,0.2L17.7,67l-1.5,0.4l0.5,2.2L16,69.7l-0.5-2.2l-0.2-0.8l5-1.2l0.2,0.8l0.5,2.2
			l-0.7,0.2l-0.5-2.2L18.4,66.8z"/>
		<path fill="#1D1D1B" d="M17.9,74.9l1.3-2l-2.4-0.5l-0.4-0.9l3.2,0.6l1.6-2.4l0.4,0.9l-1.1,1.7l1.9,0.4l0.4,0.9L20.1,73l-1.8,2.8
			L17.9,74.9z"/>
		<path fill="#1D1D1B" d="M24,75.4l0.5,0.7c0.4,0.6,0.4,1,0.3,1.3c-0.1,0.4-0.4,0.7-0.8,1c-0.4,0.3-0.8,0.4-1.2,0.3
			c-0.3,0-0.8-0.2-1.1-0.8l-0.4-0.6l-1.5,0.9l-0.4-0.7l4.3-2.8L24,75.4z M23.6,77.8c0.2-0.1,0.4-0.3,0.5-0.6c0.1-0.2,0-0.5-0.2-0.8
			l-0.4-0.6l-1.6,1.1l0.4,0.6c0.2,0.3,0.4,0.4,0.6,0.5C23.2,78,23.4,77.9,23.6,77.8z"/>
		<path fill="#1D1D1B" d="M24.2,83.9l-1.4-1.6l-0.5-0.6l3.8-3.4l0.5,0.6l-3.3,2.9l1.4,1.6L24.2,83.9z"/>
		<path fill="#1D1D1B" d="M26.4,85.7c-0.2-0.3-0.2-0.6-0.3-0.9c0-0.3,0-0.7,0.1-1c0.1-0.3,0.3-0.6,0.5-0.9c0.2-0.3,0.5-0.5,0.8-0.6
			c0.3-0.2,0.6-0.2,0.9-0.3c0.3,0,0.7,0,1,0.1c0.3,0.1,0.6,0.3,0.9,0.5c0.3,0.2,0.5,0.5,0.6,0.8c0.2,0.3,0.2,0.6,0.3,0.9
			c0,0.3,0,0.7-0.1,1c-0.1,0.3-0.3,0.6-0.5,0.9c-0.2,0.3-0.5,0.5-0.8,0.6c-0.3,0.2-0.6,0.3-0.9,0.3c-0.3,0-0.7,0-1-0.1
			c-0.3-0.1-0.6-0.3-0.9-0.5S26.6,86,26.4,85.7z M28.5,82.7c-0.5,0-0.9,0.3-1.2,0.6c-0.3,0.4-0.4,0.8-0.4,1.3c0,0.5,0.3,0.9,0.6,1.2
			c0.4,0.3,0.8,0.4,1.3,0.4s0.9-0.3,1.2-0.6c0.3-0.4,0.4-0.8,0.4-1.3c0-0.5-0.3-0.9-0.6-1.2C29.4,82.8,28.9,82.7,28.5,82.7z"/>
		<path fill="#1D1D1B" d="M34.1,90.9l-0.8-0.4l-0.3-2.1l-0.5-0.3l-0.8,1.5l-0.7-0.4l2.4-4.5l0.6,0.3l0.7,0.4
			c0.6,0.3,0.8,0.7,0.9,1.1c0.1,0.4,0,0.8-0.2,1.2c-0.2,0.4-0.5,0.7-0.9,0.8c-0.2,0.1-0.4,0.1-0.7,0.1L34.1,90.9z M33.4,87.8
			c0.3,0.2,0.6,0.2,0.8,0.1c0.3-0.1,0.4-0.3,0.5-0.5c0.1-0.2,0.2-0.5,0.1-0.7c-0.1-0.2-0.2-0.4-0.5-0.6l-0.6-0.3l-0.9,1.7L33.4,87.8
			z"/>
		<path fill="#1D1D1B" d="M37.5,89l1.8,0.6L39,90.3l-1.8-0.6l-0.5,1.5l2.1,0.7l-0.2,0.7l-2.1-0.7l-0.7-0.3l1.7-4.8l0.7,0.3l2.1,0.7
			l-0.2,0.7l-2.1-0.7L37.5,89z"/>
		<path fill="#1D1D1B" d="M47.3,89.5l-1.4-0.1l-0.4,4.4l-0.8-0.1l0.4-4.4l-1.4-0.1l0.1-0.7l3.6,0.3L47.3,89.5z"/>
		<path fill="#1D1D1B" d="M52.5,93.6l-0.8,0.1l-0.2-2.2l-2,0.2l0.2,2.2l-0.8,0.1l-0.4-5.1l0.8-0.1l0.2,2.2l2-0.2l-0.2-2.2l0.8-0.1
			L52.5,93.6z"/>
		<path fill="#1D1D1B" d="M54.8,90.1l1.8-0.5l0.2,0.7L55,90.8l0.4,1.5l2.2-0.6l0.2,0.7l-2.2,0.6l-0.8,0.2l-1.2-5l0.8-0.2l2.2-0.6
			l0.2,0.7l-2.2,0.6L54.8,90.1z"/>
		<path fill="#1D1D1B" d="M61.7,87.4l1.6,2.9l-0.7,0.4L60,86l4.5,1.5l-1.6-2.9l0.7-0.4l2.6,4.7L61.7,87.4z"/>
		<path fill="#1D1D1B" d="M69.4,84.7L68,85.9l0.4,1.1l-0.7,0.6L66,82l5.1,2.7l-0.7,0.6L69.4,84.7z M68.7,84.3l-1.5-0.8l0.5,1.6
			L68.7,84.3z"/>
		<path fill="#1D1D1B" d="M70.8,78.5l-0.9,1l3.3,2.9L72.6,83l-3.3-2.9l-0.9,1.1l-0.5-0.5l2.4-2.7L70.8,78.5z"/>
		<path fill="#1D1D1B" d="M75.2,79.1c-0.2,0.1-0.5,0.1-0.7,0.1c-0.3,0-0.5-0.1-0.8-0.3l-2.9-1.8l0.4-0.7l2.9,1.8
			c0.3,0.2,0.5,0.2,0.8,0.1c0.2-0.1,0.5-0.3,0.6-0.5c0.2-0.3,0.2-0.5,0.2-0.8c0-0.3-0.2-0.5-0.4-0.6l-2.9-1.8l0.4-0.7l2.9,1.8
			c0.2,0.1,0.4,0.3,0.6,0.6c0.1,0.2,0.2,0.4,0.2,0.7c0,0.4-0.1,0.9-0.3,1.3C76,78.7,75.6,79,75.2,79.1z"/>
		<path fill="#1D1D1B" d="M79.6,71.3l-0.3,0.8l-2.1,0.5l-0.2,0.5l1.6,0.6l-0.3,0.7l-4.7-1.9l0.3-0.6l0.3-0.8c0.3-0.6,0.7-0.9,1-1
			c0.4-0.1,0.8-0.1,1.3,0.1c0.4,0.2,0.8,0.5,0.9,0.8c0.1,0.2,0.2,0.4,0.1,0.7L79.6,71.3z M76.5,72.3c0.1-0.3,0.1-0.6,0-0.8
			c-0.1-0.3-0.4-0.4-0.6-0.5c-0.2-0.1-0.5-0.2-0.7-0.1c-0.2,0.1-0.4,0.3-0.5,0.6l-0.3,0.7l1.8,0.7L76.5,72.3z"/>
		<path fill="#1D1D1B" d="M77.3,68.1l0.4-1.8l0.7,0.2L78,68.3l1.5,0.4l0.5-2.2l0.7,0.2l-0.5,2.2l-0.2,0.8l-5-1.2l0.2-0.8l0.5-2.2
			l0.7,0.2L76,67.8L77.3,68.1z"/>
	</g>
	<circle fill="#1D1D1B" cx="16.2" cy="55" r="1.5"/>
	<circle fill="#1D1D1B" cx="32.1" cy="8.6" r="0.8"/>
	<circle fill="#1D1D1B" cx="61.7" cy="7.8" r="0.8"/>
	<circle fill="#1D1D1B" cx="79.8" cy="55" r="1.5"/>
</g>
</svg>
