<?xml version="1.0" encoding="utf-8"?>
<!-- Generator: Adobe Illustrator 22.1.0, SVG Export Plug-In . SVG Version: 6.00 Build 0)  -->
<svg version="1.1" id="Layer_1" xmlns="http://www.w3.org/2000/svg" xmlns:xlink="http://www.w3.org/1999/xlink" x="0px" y="0px"
	 viewBox="0 0 50 75.5" style="enable-background:new 0 0 50 75.5;" xml:space="preserve">
<style type="text/css">
	.st0{opacity:0.5;fill:#E6E7E8;enable-background:new    ;}
	.st1{fill:#FCFDFD;}
	.st2{fill:#EDCB9A;}
	.st3{fill:url(#SVGID_1_);}
	.st4{fill:url(#SVGID_2_);}
	.st5{fill:url(#SVGID_3_);}
	.st6{fill:url(#SVGID_4_);}
	.st7{fill:url(#SVGID_5_);}
	.st8{fill:url(#SVGID_6_);}
	.st9{fill:url(#SVGID_7_);}
</style>
<title>pin</title>
<ellipse class="st0" cx="25" cy="74.1" rx="11.8" ry="1.5"/>
<path class="st1" d="M25,3.8c-11.4,0-20.7,9.3-20.7,20.7c0,4,1.1,7.8,3.3,11.2l0.1,0.1c0.3,0.4,0.5,0.8,0.8,1.2l0.1,0.1l9.2,13.2
	l7.2,11.1l7.3-11.1l9.2-13.1c0.3-0.5,0.7-0.9,1-1.4l0.1-0.1c2.1-3.3,3.2-7.2,3.2-11.1C45.7,13.1,36.4,3.8,25,3.8z"/>
<path class="st2" d="M25,0C11.2,0,0,11.2,0,25c0,4.8,1.4,9.5,3.9,13.5L4,38.6c0.3,0.5,0.6,1,1,1.4l8.6,12.4l11.3,17.4l11.3-17.3
	l8.6-12.2c0.4-0.5,0.8-1.1,1.2-1.7l0.1-0.1l0,0c2.5-4,3.9-8.6,3.9-13.4C50,11.2,38.8,0,25,0z M41.6,35.5l-0.1,0.1
	c-0.3,0.5-0.6,0.9-0.9,1.3l-8.7,12.4L25,59.8l-6.9-10.5L9.4,36.9l-0.1-0.1c-0.3-0.4-0.5-0.8-0.8-1.1l-0.1-0.1
	c-2-3.1-3.1-6.8-3.1-10.5C5.4,14.2,14.2,5.4,25,5.4c10.8,0,19.6,8.8,19.6,19.6C44.6,28.7,43.6,32.3,41.6,35.5z"/>
<linearGradient id="SVGID_1_" gradientUnits="userSpaceOnUse" x1="15" y1="25.7015" x2="27.46" y2="25.7015">
	<stop  offset="0" style="stop-color:#E0BC62"/>
	<stop  offset="1" style="stop-color:#9E8651"/>
</linearGradient>
<polygon class="st3" points="27.5,25.5 15,10.5 15,37.7 15,40.9 15,40.9 19,40.9 19,21.1 27.5,31.3 "/>
<linearGradient id="SVGID_2_" gradientUnits="userSpaceOnUse" x1="20.4651" y1="28.3941" x2="32.9251" y2="28.3941">
	<stop  offset="0" style="stop-color:#E0BC62"/>
	<stop  offset="1" style="stop-color:#9E8651"/>
</linearGradient>
<polyline class="st4" points="32.9,10.5 28.9,15.3 28.9,35.7 20.5,25.5 20.5,31.3 32.9,46.3 "/>
<linearGradient id="SVGID_3_" gradientUnits="userSpaceOnUse" x1="20.4592" y1="18.5712" x2="27.4596" y2="18.5712">
	<stop  offset="0" style="stop-color:#E0BC62"/>
	<stop  offset="1" style="stop-color:#9E8651"/>
</linearGradient>
<polygon class="st5" points="27.5,14.3 20.5,14.3 20.5,14.4 27.5,22.8 "/>
<linearGradient id="SVGID_4_" gradientUnits="userSpaceOnUse" x1="22.0479" y1="9.0651" x2="25.8709" y2="9.0651">
	<stop  offset="0" style="stop-color:#E0BC62"/>
	<stop  offset="1" style="stop-color:#9E8651"/>
</linearGradient>
<path class="st6" d="M25.9,9.4L24,6.8L22,9.4l1.9,1.9L25.9,9.4z M24,8.4l0.7,0.9L24,10l-0.7-0.7L24,8.4z"/>
<linearGradient id="SVGID_5_" gradientUnits="userSpaceOnUse" x1="24.3267" y1="10.7926" x2="27.4596" y2="10.7926">
	<stop  offset="0" style="stop-color:#E0BC62"/>
	<stop  offset="1" style="stop-color:#9E8651"/>
</linearGradient>
<polygon class="st7" points="27.5,13 27.5,8.6 24.3,11.8 25.5,13 "/>
<linearGradient id="SVGID_6_" gradientUnits="userSpaceOnUse" x1="20.4592" y1="10.7926" x2="23.5921" y2="10.7926">
	<stop  offset="0" style="stop-color:#E0BC62"/>
	<stop  offset="1" style="stop-color:#9E8651"/>
</linearGradient>
<polygon class="st8" points="23.6,11.8 20.5,8.6 20.5,13 22.4,13 "/>
<linearGradient id="SVGID_7_" gradientUnits="userSpaceOnUse" x1="23.2208" y1="12.5581" x2="24.6981" y2="12.5581">
	<stop  offset="0" style="stop-color:#E0BC62"/>
	<stop  offset="1" style="stop-color:#9E8651"/>
</linearGradient>
<polygon class="st9" points="23.2,13 24.7,13 24,12.2 "/>
</svg>
