<?xml version="1.0" encoding="utf-8"?>
<!-- Generator: Adobe Illustrator 22.1.0, SVG Export Plug-In . SVG Version: 6.00 Build 0)  -->
<svg version="1.1" id="katman_1" xmlns="http://www.w3.org/2000/svg" xmlns:xlink="http://www.w3.org/1999/xlink" x="0px" y="0px"
	 viewBox="0 0 102 36" style="enable-background:new 0 0 102 36;" xml:space="preserve">
<style type="text/css">
	.st0{fill:#FFFFFF;}
	.st1{font-family:'RobotoCondensed-Bold';}
	.st2{font-size:7.7286px;}
</style>
<rect x="1.3" y="8.3" class="st0" width="2.8" height="17.5"/>
<polygon class="st0" points="10.4,7.9 10.4,25.7 13.1,25.7 13.1,15.1 22.3,26.1 22.3,8.3 19.6,8.3 19.6,18.9 "/>
<path class="st0" d="M30,25.7l1.4-4h4.3l1.2,4h2.9L33.4,7.6l-6.3,18.1H30z M33.2,14.9l1.5,4.6h-2.9L33.2,14.9z"/>
<polygon class="st0" points="70.3,23.2 65.2,23.2 65.2,8.3 62.4,8.3 62.4,25.7 70.3,25.7 "/>
<path class="st0" d="M77.2,21.7h4.3l1.2,4h2.9L79.2,7.6L73,25.8h2.8L77.2,21.7z M79.2,14.9l1.5,4.6h-2.9L79.2,14.9z"/>
<path class="st0" d="M92.8,17.7l4.9,8h3.2L96.1,18c1.5-0.3,3.5-2.1,3.5-4.6c0-3.5-2.6-5.1-5.8-5.1h-3.7v17.4h2.8V17.7z M92.8,10.8
	h1.1c2.1,0,2.9,1.2,2.9,2.6c0,1.2-0.6,2.8-3.2,2.8h-0.8C92.8,16.2,92.8,10.8,92.8,10.8z"/>
<polygon class="st0" points="57.7,1.6 54,6 54,5.9 54,0.5 52,2.5 50.3,0.3 48.6,2.5 46.6,0.5 46.6,5.9 46.6,6 42.9,1.6 42.9,27.1 
	48.3,27.1 48.3,21.5 57.7,32.9 "/>
<g>
	<g>
		<polygon class="st0" points="52.7,15.2 44.3,5.1 44.3,23.5 44.3,23.5 44.3,25.7 44.3,25.7 44.3,25.7 46.9,25.7 46.9,12.3 
			52.7,19.2 		"/>
		<polygon class="st0" points="56.4,5.1 53.7,8.3 53.7,22.2 48,15.2 48,19.2 56.4,29.4 56.4,11.4 56.4,11.4 		"/>
	</g>
	<g>
		<polygon class="st0" points="48,8 52.7,13.9 52.7,7.1 48,7.1 		"/>
		<path class="st0" d="M50.3,2.5l-1.2,1.7l1.2,1.2l1.4-1.2L50.3,2.5z M50.3,4.5l-0.5-0.3l0.5-0.6l0.5,0.6L50.3,4.5z"/>
		<polygon class="st0" points="50.6,5.9 51.4,6.6 52.7,6.6 52.7,3.7 		"/>
		<polygon class="st0" points="50,5.9 48,3.7 48,6.6 49.2,6.6 		"/>
		<polygon class="st0" points="50.8,6.6 50.3,6 49.8,6.6 		"/>
	</g>
</g>
<circle class="st0" cx="2.7" cy="4.3" r="1.7"/>
<text transform="matrix(1.4444 0 0 1 61.8936 32.876)" class="st0 st1 st2">H O T E L</text>
</svg>
