<?xml version="1.0" encoding="utf-8"?>
<!-- Generator: Adobe Illustrator 22.1.0, SVG Export Plug-In . SVG Version: 6.00 Build 0)  -->
<svg version="1.1" id="katman_1" xmlns="http://www.w3.org/2000/svg" xmlns:xlink="http://www.w3.org/1999/xlink" x="0px" y="0px"
	 viewBox="0 0 75.2 107.9" style="enable-background:new 0 0 75.2 107.9;" xml:space="preserve">
<style type="text/css">
	.st0{fill:url(#SVGID_1_);}
	.st1{fill:url(#SVGID_2_);}
	.st2{fill:url(#SVGID_3_);}
	.st3{fill:url(#SVGID_4_);}
	.st4{fill:url(#SVGID_5_);}
	.st5{fill:url(#SVGID_6_);}
	.st6{fill:url(#SVGID_7_);}
	.st7{fill:#1D1D1B;}
	.st8{fill:#C59A3D;}
	.st9{fill:#FFFFFF;}
	.st10{fill:#008D36;}
	.st11{font-family:'RobotoCondensed-Bold';}
	.st12{font-size:4.7231px;}
</style>
<title>Asset 8</title>
<g>
	<g>
		<g>
			<g>
				<linearGradient id="SVGID_1_" gradientUnits="userSpaceOnUse" x1="16.7932" y1="17.2354" x2="34.6949" y2="61.5438">
					<stop  offset="0" style="stop-color:#E0BC62"/>
					<stop  offset="1" style="stop-color:#9E8651"/>
				</linearGradient>
				<polygon class="st0" points="40.9,39.7 20.9,15.6 20.9,59.3 20.9,64.5 20.9,64.5 27.4,64.5 27.4,32.6 40.9,49 				"/>
				<linearGradient id="SVGID_2_" gradientUnits="userSpaceOnUse" x1="35.2708" y1="21.4" x2="55.264" y2="70.8849">
					<stop  offset="0" style="stop-color:#E0BC62"/>
					<stop  offset="1" style="stop-color:#9E8651"/>
				</linearGradient>
				<polygon class="st1" points="43.2,56.1 29.7,39.7 29.7,49 49.7,73.1 49.7,30.5 49.7,30.5 49.7,15.6 43.2,23.4 				"/>
				<linearGradient id="SVGID_3_" gradientUnits="userSpaceOnUse" x1="34.4719" y1="19.8336" x2="40.7789" y2="35.4438">
					<stop  offset="0" style="stop-color:#E0BC62"/>
					<stop  offset="1" style="stop-color:#9E8651"/>
				</linearGradient>
				<polygon class="st2" points="40.9,21.8 29.6,21.8 29.6,21.8 40.9,35.4 				"/>
				<linearGradient id="SVGID_4_" gradientUnits="userSpaceOnUse" x1="33.8492" y1="10.32" x2="36.3354" y2="16.4735">
					<stop  offset="0" style="stop-color:#E0BC62"/>
					<stop  offset="1" style="stop-color:#9E8651"/>
				</linearGradient>
				<path class="st3" d="M38.3,13.8l-3.1-4.1l-3.1,4.1l3.1,3.1L38.3,13.8z M35.3,12.3l1.1,1.4l-1.1,1.1l-1.1-1.1L35.3,12.3z"/>
				<linearGradient id="SVGID_5_" gradientUnits="userSpaceOnUse" x1="37.8407" y1="13.8485" x2="40.2601" y2="19.8367">
					<stop  offset="0" style="stop-color:#E0BC62"/>
					<stop  offset="1" style="stop-color:#9E8651"/>
				</linearGradient>
				<polygon class="st4" points="40.9,19.6 40.9,12.6 35.9,17.7 37.7,19.6 				"/>
				<linearGradient id="SVGID_6_" gradientUnits="userSpaceOnUse" x1="29.7143" y1="12.5898" x2="32.5793" y2="19.6809">
					<stop  offset="0" style="stop-color:#E0BC62"/>
					<stop  offset="1" style="stop-color:#9E8651"/>
				</linearGradient>
				<polygon class="st5" points="34.7,17.7 29.6,12.6 29.6,19.6 32.8,19.6 				"/>
				<linearGradient id="SVGID_7_" gradientUnits="userSpaceOnUse" x1="34.8199" y1="18.4684" x2="35.4362" y2="19.9939">
					<stop  offset="0" style="stop-color:#E0BC62"/>
					<stop  offset="1" style="stop-color:#9E8651"/>
				</linearGradient>
				<polygon class="st6" points="34.1,19.6 36.5,19.6 35.3,18.3 				"/>
			</g>
		</g>
	</g>
</g>
<g>
	<g>
		<path class="st7" d="M8.1,37.6c0.2,0,0.4,0,0.6,0.1c0.2,0.1,0.3,0.2,0.4,0.4c0.2,0.3,0.3,0.7,0.3,1.1v0.4v0.5H5.2v-0.6v-0.3
			c0-0.5,0.1-0.8,0.3-1c0.1-0.1,0.2-0.2,0.4-0.3c0.1-0.1,0.3-0.1,0.4-0.1c0.2,0,0.5,0.1,0.8,0.3C7,38.1,7.1,38,7.2,38
			c0.1-0.1,0.3-0.2,0.4-0.3C7.7,37.6,7.9,37.6,8.1,37.6z M5.8,39.5H7c0-0.1-0.1-0.3-0.1-0.4c-0.1-0.2-0.2-0.4-0.3-0.5
			c-0.1-0.1-0.2-0.2-0.4-0.2c-0.2,0-0.3,0.1-0.3,0.1c-0.1,0.2-0.1,0.5-0.1,0.7V39.5z M8.1,38.2c-0.2,0-0.4,0.1-0.5,0.2
			c-0.1,0.1-0.2,0.2-0.2,0.3c0,0.1,0.1,0.1,0.1,0.2c0.1,0.2,0.2,0.5,0.2,0.6h1.1v-0.3c0-0.4-0.1-0.6-0.2-0.8
			C8.5,38.2,8.3,38.2,8.1,38.2z"/>
		<path class="st7" d="M9,36c-0.1,0.2-0.3,0.3-0.4,0.4c-0.2,0.1-0.4,0.1-0.6,0.1H5.2v-0.6h2.7c0.2,0,0.4-0.1,0.6-0.3
			c0.1-0.2,0.2-0.4,0.2-0.6c0-0.2-0.1-0.5-0.2-0.6c-0.1-0.2-0.3-0.3-0.6-0.3H5.2v-0.7h2.7c0.2,0,0.4,0.1,0.6,0.1
			c0.2,0.1,0.3,0.2,0.4,0.4c0.2,0.3,0.3,0.6,0.3,1C9.3,35.3,9.2,35.7,9,36z"/>
		<path class="st7" d="M6.7,31.4l2.7,0.1l0,0.6L5,32l2.9-2.5l-2.7-0.1l0-0.7l4.3,0.2L6.7,31.4z"/>
		<path class="st7" d="M8.7,24.3l1.1,0.2l0.1,0.2c0,0,0,0,0,0c0,0,0,0,0,0c0,0,0,0,0,0c0,0,0,0,0,0c0,0,0,0,0,0c0,0,0,0,0,0s0,0,0,0
			c0,0,0,0,0,0c0,0,0,0,0,0c0,0,0,0,0,0c0,0,0,0,0,0c0,0,0,0,0,0c0,0,0,0,0,0c0,0,0,0,0,0c0,0,0,0,0,0c0.1,0.3,0.1,0.5,0,0.8
			c0,0,0,0,0,0c0,0,0,0,0,0l0,0c0,0,0,0,0,0c0,0.2-0.1,0.4-0.2,0.6c0,0,0,0,0,0c0,0,0,0,0,0.1c0,0,0,0.1,0,0.1
			c0,0.1-0.1,0.1-0.1,0.2c-0.1,0.1-0.3,0.3-0.4,0.4c-0.2,0.1-0.5,0.3-0.7,0.3c-0.2,0-0.4,0.1-0.6,0c-0.1,0-0.1,0-0.2,0
			c0,0-0.1,0-0.1,0c-0.2-0.1-0.5-0.2-0.7-0.3c-0.2-0.2-0.4-0.3-0.6-0.6c-0.1-0.2-0.3-0.5-0.3-0.7c-0.1-0.3-0.1-0.5,0-0.8
			c0,0,0,0,0,0l0,0c0,0,0,0,0,0c0,0,0,0,0,0c0,0,0,0,0,0c0.1-0.2,0.2-0.5,0.3-0.6c0,0,0,0,0,0c0,0,0,0,0,0c0,0,0,0,0,0L7,24.4
			c-0.1,0.1-0.2,0.1-0.2,0.2c-0.1,0.1-0.1,0.2-0.1,0.2c0,0,0,0,0,0c0,0,0,0,0,0c0,0,0,0,0,0c0,0,0,0,0,0c0,0,0,0,0,0.1c0,0,0,0,0,0
			c0,0,0,0,0,0c0,0,0,0,0,0c0,0,0,0,0,0c0,0,0,0,0,0c0,0,0,0,0,0c0,0,0,0,0,0c0,0,0,0,0,0c0,0,0,0,0,0c0,0,0,0,0,0c0,0,0,0,0,0
			c-0.1,0.3,0,0.5,0.1,0.8c0,0,0,0,0,0c0,0.1,0.1,0.2,0.1,0.3c0,0,0,0.1,0.1,0.1c0,0,0,0,0,0c0,0,0.1,0.1,0.1,0.1c0,0,0,0,0,0
			c0,0,0,0,0,0c0,0,0,0,0,0c0.1,0.1,0.2,0.2,0.4,0.3c0,0,0,0,0,0c0.1,0,0.1,0,0.2,0.1c0,0,0,0,0.1,0c0,0,0,0,0.1,0c0,0,0,0,0.1,0
			c0.1,0,0.2,0,0.3,0c0.2,0,0.5-0.1,0.7-0.2c0.3-0.2,0.5-0.5,0.6-0.9c0,0,0,0,0,0c0,0,0,0,0,0c0,0,0,0,0,0c0,0,0,0,0,0c0,0,0,0,0,0
			c0,0,0,0,0,0c0,0,0,0,0,0c0,0,0,0,0,0c0,0,0,0,0,0c0,0,0-0.1,0-0.1c0,0,0,0,0,0c0,0,0,0,0,0c0,0,0,0,0,0c0,0,0,0,0,0c0,0,0,0,0,0
			c0,0,0,0,0,0c0-0.1,0-0.2,0-0.2c0,0,0,0,0,0L8.5,25l-0.2,0.8l-0.6-0.1l0.3-1.4L8.7,24.3z"/>
		<path class="st7" d="M10.4,21.3l-0.5,1.4l0.7,0.6L10.4,24l-3.4-3.2l4.7-0.2l-0.2,0.7L10.4,21.3z M9.8,21.3l-1.4,0l1,0.9L9.8,21.3z
			"/>
		<path class="st7" d="M13.1,17.8l-0.8,1.5L12,19.9l-3.6-1.9l0.3-0.6l3.1,1.7l0.8-1.5L13.1,17.8z"/>
		<path class="st7" d="M13.9,16.3c-0.2,0.1-0.5,0.2-0.7,0.3c-0.3,0-0.5,0-0.8,0c-0.3-0.1-0.5-0.2-0.7-0.3c-0.2-0.2-0.4-0.4-0.6-0.6
			c-0.1-0.2-0.2-0.5-0.3-0.7c0-0.3,0-0.5,0-0.8c0.1-0.3,0.2-0.5,0.3-0.7c0.2-0.2,0.4-0.4,0.6-0.6c0.2-0.1,0.5-0.2,0.7-0.3
			c0.3,0,0.5,0,0.8,0c0.3,0.1,0.5,0.2,0.7,0.3c0.2,0.2,0.4,0.4,0.6,0.6c0.1,0.2,0.2,0.5,0.3,0.7c0,0.3,0,0.5,0,0.8
			c-0.1,0.3-0.2,0.5-0.3,0.7C14.4,16,14.2,16.1,13.9,16.3z M11.5,14.7c0.1,0.4,0.3,0.7,0.6,0.9c0.3,0.2,0.7,0.3,1.1,0.3
			c0.4-0.1,0.7-0.3,0.9-0.6c0.2-0.3,0.3-0.7,0.3-1.1c-0.1-0.4-0.3-0.7-0.6-0.9c-0.3-0.2-0.7-0.3-1.1-0.3c-0.4,0.1-0.7,0.3-0.9,0.6
			S11.4,14.4,11.5,14.7z"/>
		<path class="st7" d="M19,11.2l-2.5-1.1l0.9,2.5l-4.3-1.9l0.5-0.5l2.7,1.2l-0.7-1.7l-0.3-0.9l0.8,0.4l1.7,0.8l-1-2.7l0.5-0.5
			L19,11.2z"/>
		<path class="st7" d="M29.2,5.6l-0.6,0.2L28,4.1l-1.6,0.5L27,6.3l-0.6,0.2l-1.3-3.9l0.6-0.2l0.6,1.7l1.6-0.5l-0.6-1.7l0.6-0.2
			L29.2,5.6z"/>
		<path class="st7" d="M31.4,5c-0.3-0.1-0.5-0.2-0.7-0.3c-0.2-0.2-0.4-0.4-0.5-0.6c-0.1-0.2-0.2-0.5-0.3-0.8s0-0.6,0-0.8
			C30,2.2,30.1,2,30.3,1.7c0.2-0.2,0.4-0.4,0.6-0.5c0.2-0.1,0.5-0.2,0.8-0.3c0.3,0,0.6,0,0.8,0c0.3,0.1,0.5,0.2,0.7,0.3
			c0.2,0.2,0.4,0.4,0.5,0.6c0.1,0.2,0.2,0.5,0.3,0.8c0,0.3,0,0.6,0,0.8c-0.1,0.3-0.2,0.5-0.3,0.7c-0.2,0.2-0.4,0.4-0.6,0.5
			C32.8,4.9,32.5,5,32.2,5C32,5,31.7,5,31.4,5z M30.8,2.1c-0.2,0.3-0.3,0.7-0.3,1.1c0.1,0.4,0.3,0.7,0.6,0.9
			c0.3,0.2,0.7,0.3,1.1,0.3c0.4-0.1,0.7-0.3,0.9-0.6c0.2-0.3,0.3-0.7,0.3-1.1c-0.1-0.4-0.3-0.7-0.6-0.9c-0.3-0.2-0.7-0.3-1.1-0.3
			C31.3,1.6,31,1.8,30.8,2.1z"/>
		<path class="st7" d="M37.6,1.2l-1.1,0l0,3.6l-0.7,0l0-3.6l-1.1,0l0-0.6l2.9,0L37.6,1.2z"/>
		<path class="st7" d="M39.5,2.4L41,2.6l-0.1,0.6L39.4,3l-0.2,1.3l1.8,0.2L41,5.1l-1.8-0.2l-0.6-0.1l0.5-4.1l0.6,0.1L41.5,1
			l-0.1,0.6l-1.8-0.2L39.5,2.4z"/>
		<path class="st7" d="M44.4,5.9l-1.7-0.4l-0.6-0.2l1-4l0.6,0.2l-0.9,3.4l1.7,0.4L44.4,5.9z"/>
		<path class="st7" d="M53,10.5l-0.6-0.4l0-1.7L52,8.1l-0.8,1.1l-0.5-0.4L53,5.5l0.4,0.3L54,6.2c0.4,0.3,0.6,0.7,0.6,0.9
			c0,0.3-0.1,0.7-0.3,1c-0.2,0.3-0.5,0.5-0.8,0.6c-0.1,0-0.3,0-0.6,0L53,10.5z M52.8,7.9c0.2,0.2,0.4,0.2,0.6,0.2
			c0.2,0,0.4-0.2,0.5-0.4c0.1-0.1,0.2-0.3,0.2-0.6c0-0.2-0.1-0.4-0.4-0.5l-0.5-0.3l-0.9,1.3L52.8,7.9z"/>
		<path class="st7" d="M55.8,9.7l1.1,1l-0.4,0.4l-1.1-1l-0.9,0.9l1.3,1.2l-0.4,0.4l-1.4-1.2l-0.5-0.4l2.8-3l0.5,0.4l1.4,1.2
			l-0.4,0.4l-1.3-1.2L55.8,9.7z"/>
		<path class="st7" d="M58.2,14.7c-0.4,0.2-0.9,0.1-1.2-0.2c-0.1-0.1-0.1-0.1-0.2-0.2c-0.1-0.1-0.2-0.3-0.2-0.4
			c-0.1-0.3-0.1-0.6,0-0.9l0.6,0.1c0,0.2,0,0.4,0,0.5c0,0.1,0.1,0.2,0.2,0.3c0.2,0.1,0.4,0.2,0.5,0.1c0.2-0.1,0.2-0.3,0.2-0.4
			c0-0.3,0-0.7,0-0.7l0-0.7c0-0.2,0.1-0.4,0.2-0.6c0.1-0.2,0.2-0.3,0.4-0.3c0.2-0.1,0.4-0.1,0.6-0.1c0.2,0,0.4,0.1,0.5,0.2
			c0.2,0.1,0.3,0.3,0.4,0.5c0.1,0.2,0.1,0.5,0,0.7l-0.6-0.1c0.1-0.3-0.1-0.5-0.2-0.6c-0.1-0.1-0.3-0.1-0.4-0.1
			C59.1,12,59,12,59,12.3l-0.1,1c0,0.1,0,0.3,0,0.4c0,0.2-0.1,0.5-0.2,0.6C58.6,14.5,58.4,14.6,58.2,14.7z"/>
		<path class="st7" d="M62.6,16.3l-0.6-1l-3,1.9l-0.4-0.5l3-1.9l-0.6-1l0.5-0.3l1.6,2.5L62.6,16.3z"/>
		<path class="st7" d="M61.6,20.1l-0.6-1.3l-1,0.1l-0.3-0.6l4.7-0.3l-3.1,3.5l-0.3-0.6L61.6,20.1z M62,19.7l0.9-1l-1.4,0.1L62,19.7z
			"/>
		<path class="st7" d="M61.9,22.4c0.1-0.2,0.2-0.4,0.3-0.5c0.2-0.1,0.3-0.3,0.6-0.3l2.6-0.8l0.2,0.6L63,22.2
			c-0.2,0.1-0.4,0.2-0.5,0.4c-0.1,0.2-0.1,0.4,0,0.7c0.1,0.2,0.2,0.4,0.4,0.5c0.2,0.1,0.4,0.1,0.6,0.1l2.6-0.8l0.2,0.6l-2.6,0.8
			c-0.2,0.1-0.4,0.1-0.6,0.1c-0.2,0-0.4-0.1-0.5-0.2c-0.3-0.2-0.5-0.5-0.6-0.9C61.8,23.1,61.8,22.8,61.9,22.4z"/>
		<path class="st7" d="M63.1,28.9l-0.1-0.7l1.2-1.2l-0.1-0.5l-1.4,0.2l-0.1-0.6l4.1-0.6l0.1,0.5l0.1,0.7c0.1,0.5-0.1,0.9-0.2,1.1
			c-0.2,0.3-0.5,0.4-0.9,0.5c-0.4,0.1-0.7,0-1-0.2c-0.1-0.1-0.3-0.2-0.4-0.4L63.1,28.9z M64.8,27c0,0.3,0.1,0.5,0.3,0.6
			c0.2,0.1,0.4,0.1,0.6,0.1c0.2,0,0.4-0.1,0.5-0.3c0.1-0.1,0.2-0.4,0.1-0.6l-0.1-0.6l-1.6,0.2L64.8,27z"/>
		<path class="st7" d="M64,32.1l0-1.5l-0.9-0.3l0-0.7l4.4,1.7l-4.3,1.9l0-0.7L64,32.1z M64.6,31.8l1.3-0.5l-1.3-0.5L64.6,31.8z"/>
		<path class="st7" d="M65.8,34.8h-2.7v-0.6h4.3l-2.9,2.6h2.7v0.7H63L65.8,34.8z"/>
		<path class="st7" d="M66.7,41.4v-1.1h-3.6v-0.7h3.6v-1.1h0.6v2.9H66.7z"/>
	</g>
	<g>
		<path class="st7" d="M9,58.7l0.2,1.7l-0.7,0.1l-0.2-1.7L6.9,59l0.3,2l-0.7,0.1l-0.3-2l-0.1-0.7l4.6-0.7l0.1,0.7l0.3,2l-0.6,0.1
			l-0.3-2L9,58.7z"/>
		<path class="st7" d="M7.9,66l1.3-1.7l-2.1-0.6l-0.3-0.9l2.9,0.8l1.6-2.1l0.3,0.9l-1.1,1.4l1.7,0.5l0.3,0.9L10,64.5l-1.8,2.4
			L7.9,66z"/>
		<path class="st7" d="M13.4,66.9l0.4,0.7c0.3,0.5,0.2,1,0.1,1.2c-0.1,0.4-0.4,0.6-0.8,0.8c-0.4,0.2-0.8,0.3-1.1,0.2
			c-0.3-0.1-0.7-0.3-1-0.8l-0.3-0.6l-1.4,0.7L9,68.6l4.1-2.2L13.4,66.9z M12.8,69.1c0.2-0.1,0.4-0.2,0.5-0.5c0.1-0.2,0-0.4-0.1-0.7
			l-0.3-0.6l-1.6,0.8l0.3,0.6c0.1,0.3,0.3,0.4,0.5,0.5C12.4,69.3,12.6,69.2,12.8,69.1z"/>
		<path class="st7" d="M12.9,74.7l-1.2-1.6l-0.4-0.6l3.7-2.8l0.4,0.6l-3.2,2.4l1.2,1.6L12.9,74.7z"/>
		<path class="st7" d="M14.7,76.4c-0.1-0.3-0.2-0.6-0.2-0.9c0-0.3,0-0.6,0.2-0.9c0.1-0.3,0.3-0.5,0.5-0.8c0.2-0.2,0.5-0.4,0.8-0.5
			c0.3-0.1,0.6-0.2,0.9-0.2c0.3,0,0.6,0,0.9,0.2c0.3,0.1,0.5,0.3,0.8,0.5c0.2,0.2,0.4,0.5,0.5,0.8c0.1,0.3,0.2,0.6,0.2,0.9
			c0,0.3-0.1,0.6-0.2,0.9c-0.1,0.3-0.3,0.6-0.5,0.8c-0.2,0.2-0.5,0.4-0.8,0.5c-0.3,0.1-0.6,0.2-0.9,0.2c-0.3,0-0.6,0-0.9-0.2
			c-0.3-0.1-0.6-0.3-0.8-0.5C15,77,14.9,76.7,14.7,76.4z M16.8,73.9c-0.4,0-0.8,0.2-1.1,0.5c-0.3,0.3-0.5,0.7-0.4,1.1
			c0,0.4,0.2,0.8,0.5,1.1c0.3,0.3,0.7,0.5,1.1,0.4c0.4,0,0.8-0.2,1.1-0.5c0.3-0.3,0.5-0.7,0.4-1.1s-0.2-0.8-0.5-1.1
			S17.3,73.9,16.8,73.9z"/>
		<path class="st7" d="M21.3,81.8l-0.7-0.4l-0.1-2L20,79.1l-0.9,1.3L18.5,80l2.5-3.9l0.5,0.3l0.6,0.4c0.5,0.3,0.7,0.7,0.7,1
			c0.1,0.4,0,0.7-0.3,1.1c-0.2,0.4-0.5,0.6-0.9,0.7c-0.2,0-0.4,0.1-0.6,0L21.3,81.8z M20.9,78.9c0.3,0.2,0.5,0.2,0.7,0.2
			c0.2-0.1,0.4-0.3,0.5-0.4c0.1-0.2,0.2-0.4,0.2-0.6c0-0.2-0.2-0.4-0.4-0.6L21.3,77l-1,1.5L20.9,78.9z"/>
		<path class="st7" d="M24.5,80.3l1.6,0.7l-0.3,0.6l-1.6-0.7l-0.6,1.3l1.9,0.8l-0.3,0.6l-1.9-0.8l-0.7-0.3l1.9-4.2l0.7,0.3l1.9,0.8
			L26.9,80L25,79.2L24.5,80.3z"/>
		<path class="st7" d="M30.2,85.1l-0.8-0.2l-0.7-1.8L28.2,83l-0.4,1.5l-0.7-0.2l1.2-4.5l0.6,0.2l0.7,0.2c0.6,0.2,0.9,0.5,1,0.7
			c0.2,0.3,0.2,0.7,0.1,1.1c-0.1,0.4-0.3,0.7-0.6,0.9c-0.1,0.1-0.3,0.2-0.6,0.2L30.2,85.1z M29,82.5c0.3,0.1,0.5,0,0.7-0.1
			c0.2-0.1,0.3-0.4,0.4-0.6c0-0.2,0.1-0.4,0-0.7c-0.1-0.2-0.3-0.3-0.6-0.4l-0.6-0.2l-0.4,1.7L29,82.5z"/>
		<path class="st7" d="M37.8,81.7l-1.3,0l0,4l-0.7,0l0-4l-1.3,0l0-0.7l3.3,0L37.8,81.7z"/>
		<path class="st7" d="M42.8,85l-0.7,0.1l-0.3-2L40,83.4l0.3,2l-0.7,0.1l-0.8-4.6l0.7-0.1l0.3,2l1.8-0.3l-0.3-2l0.7-0.1L42.8,85z"/>
		<path class="st7" d="M44.6,81.6l1.6-0.6l0.2,0.6l-1.6,0.6l0.5,1.4l1.9-0.7l0.2,0.6l-2,0.7l-0.7,0.2l-1.5-4.4l0.7-0.2l2-0.7
			l0.2,0.6l-1.9,0.7L44.6,81.6z"/>
		<path class="st7" d="M50.6,78.6l1.7,2.5l-0.6,0.4l-2.7-4l4.2,1L51.5,76l0.6-0.4l2.7,4L50.6,78.6z"/>
		<path class="st7" d="M57.5,75.6l-1.2,1.2l0.4,1l-0.6,0.6l-2-4.9l4.9,2L58.4,76L57.5,75.6z M56.8,75.3l-1.4-0.6l0.6,1.4L56.8,75.3z
			"/>
		<path class="st7" d="M58.2,69.8l-0.8,1l3.2,2.4l-0.4,0.6L57,71.4l-0.8,1l-0.5-0.4l2-2.6L58.2,69.8z"/>
		<path class="st7" d="M62.3,70.1c-0.2,0.1-0.4,0.1-0.6,0.1c-0.2,0-0.5-0.1-0.7-0.2l-2.7-1.4l0.3-0.6l2.7,1.4c0.2,0.1,0.5,0.1,0.7,0
			c0.2-0.1,0.4-0.3,0.5-0.5c0.1-0.2,0.2-0.5,0.1-0.7c0-0.2-0.2-0.4-0.4-0.5l-2.7-1.4l0.3-0.7l2.7,1.4c0.2,0.1,0.4,0.3,0.6,0.5
			c0.1,0.2,0.2,0.4,0.3,0.6c0.1,0.4,0,0.8-0.2,1.2C62.9,69.6,62.6,69.9,62.3,70.1z"/>
		<path class="st7" d="M65.7,62.7l-0.2,0.8l-1.8,0.7l-0.2,0.5l1.5,0.5l-0.2,0.7l-4.4-1.4l0.2-0.6l0.2-0.7c0.2-0.6,0.5-0.9,0.8-1
			c0.3-0.2,0.7-0.2,1.1,0c0.4,0.1,0.7,0.4,0.9,0.7c0.1,0.1,0.2,0.4,0.2,0.6L65.7,62.7z M63,63.8c0.1-0.3,0.1-0.5,0-0.7
			c-0.1-0.2-0.4-0.3-0.5-0.4c-0.2-0.1-0.4-0.1-0.7,0c-0.2,0.1-0.3,0.3-0.4,0.6l-0.2,0.6l1.7,0.5L63,63.8z"/>
		<path class="st7" d="M63.4,60l0.2-1.7l0.7,0.1L64,60.1l1.4,0.2l0.3-2l0.7,0.1l-0.3,2L66,61.1l-4.6-0.7l0.1-0.7l0.3-2l0.6,0.1
			l-0.3,2L63.4,60z"/>
	</g>
	<circle class="st7" cx="7.3" cy="48.7" r="1.4"/>
	<circle class="st7" cx="21.8" cy="6.5" r="0.7"/>
	<circle class="st7" cx="48.7" cy="5.8" r="0.7"/>
	<circle class="st7" cx="65.1" cy="48.7" r="1.4"/>
</g>
<rect x="6.4" y="92.2" class="st7" width="1.7" height="10.7"/>
<polygon class="st7" points="11.9,91.9 11.9,102.8 13.6,102.8 13.6,96.3 19.2,103 19.2,92.2 17.5,92.2 17.5,98.6 "/>
<path class="st7" d="M23.9,102.8l0.8-2.4h2.6l0.8,2.4h1.8L26,91.7l-3.8,11.1H23.9z M25.9,96.2l0.9,2.8h-1.8L25.9,96.2z"/>
<polygon class="st7" points="48.5,101.3 45.4,101.3 45.4,92.2 43.7,92.2 43.7,102.8 48.5,102.8 "/>
<path class="st7" d="M52.7,100.3h2.6l0.8,2.4h1.8L54,91.7l-3.8,11.2h1.7L52.7,100.3z M54,96.2l0.9,2.8h-1.8L54,96.2z"/>
<path class="st7" d="M62.3,97.9l3,4.9h2l-3-4.7c0.9-0.2,2.2-1.3,2.2-2.8c0-2.2-1.6-3.1-3.6-3.1h-2.3v10.6h1.7V97.9z M62.3,93.7H63
	c1.3,0,1.8,0.8,1.8,1.6c0,0.8-0.4,1.7-2,1.7h-0.5C62.3,96.9,62.3,93.7,62.3,93.7z"/>
<polygon class="st8" points="40.8,88 38.6,90.7 38.6,90.7 38.6,87.4 37.3,88.6 36.3,87.3 35.3,88.6 34.1,87.4 34.1,90.7 34.1,90.7 
	31.8,88 31.8,103.6 35.1,103.6 35.1,100.2 40.8,107.2 "/>
<g>
	<g>
		<polygon class="st9" points="37.8,96.4 32.7,90.2 32.7,101.4 32.7,101.4 32.7,102.8 32.7,102.8 32.7,102.8 34.2,102.8 34.2,94.6 
			37.8,98.8 		"/>
		<polygon class="st9" points="40.1,90.2 38.4,92.2 38.4,100.6 34.9,96.4 34.9,98.8 40.1,105 40.1,94 40.1,94 		"/>
	</g>
	<g>
		<polygon class="st9" points="34.9,92 37.8,95.5 37.8,91.4 34.9,91.4 		"/>
		<path class="st9" d="M36.3,88.6l-0.8,1l0.8,0.8l0.8-0.8L36.3,88.6z M36.3,89.8L36,89.6l0.3-0.4l0.3,0.4L36.3,89.8z"/>
		<polygon class="st9" points="36.5,90.7 37,91.1 37.8,91.1 37.8,89.3 		"/>
		<polygon class="st9" points="36.1,90.7 34.9,89.3 34.9,91.1 35.7,91.1 		"/>
		<polygon class="st9" points="36.6,91.1 36.3,90.7 36,91.1 		"/>
	</g>
</g>
<circle class="st7" cx="7.2" cy="89.7" r="1"/>
<text transform="matrix(1.4444 0 0 1 43.4023 107.1553)" class="st10 st11 st12">H O T E L</text>
</svg>
