<?xml version="1.0" encoding="utf-8"?>
<!-- Generator: Adobe Illustrator 22.1.0, SVG Export Plug-In . SVG Version: 6.00 Build 0)  -->
<svg version="1.1" id="katman_1" xmlns="http://www.w3.org/2000/svg" xmlns:xlink="http://www.w3.org/1999/xlink" x="0px" y="0px"
	 viewBox="0 0 100 151" style="enable-background:new 0 0 100 151;" xml:space="preserve">
<style type="text/css">
	.st0{fill:url(#SVGID_1_);}
	.st1{fill:url(#SVGID_2_);}
	.st2{fill:url(#SVGID_3_);}
	.st3{fill:url(#SVGID_4_);}
	.st4{fill:url(#SVGID_5_);}
	.st5{fill:url(#SVGID_6_);}
	.st6{fill:url(#SVGID_7_);}
	.st7{fill:#1D1D1B;}
	.st8{fill:#C59A3D;}
	.st9{fill:#FFFFFF;}
	.st10{fill:#008D36;}
	.st11{font-family:'RobotoCondensed-Bold';}
	.st12{font-size:4.7563px;}
</style>
<title>Asset 9</title>
<g>
	<g>
		<g>
			<g>
				<linearGradient id="SVGID_1_" gradientUnits="userSpaceOnUse" x1="30.4343" y1="22.5951" x2="48.4617" y2="67.2146">
					<stop  offset="0" style="stop-color:#E0BC62"/>
					<stop  offset="1" style="stop-color:#9E8651"/>
				</linearGradient>
				<polygon class="st0" points="54.7,45.3 34.6,20.9 34.6,64.9 34.6,70.2 34.6,70.2 41.1,70.2 41.1,38.1 54.7,54.6 				"/>
				<linearGradient id="SVGID_2_" gradientUnits="userSpaceOnUse" x1="49.0416" y1="26.789" x2="69.1751" y2="76.6213">
					<stop  offset="0" style="stop-color:#E0BC62"/>
					<stop  offset="1" style="stop-color:#9E8651"/>
				</linearGradient>
				<polygon class="st1" points="57,61.7 43.4,45.2 43.4,54.5 63.5,78.9 63.5,36 63.5,36 63.5,20.9 57,28.8 				"/>
				<linearGradient id="SVGID_3_" gradientUnits="userSpaceOnUse" x1="48.2372" y1="25.2115" x2="54.5884" y2="40.9313">
					<stop  offset="0" style="stop-color:#E0BC62"/>
					<stop  offset="1" style="stop-color:#9E8651"/>
				</linearGradient>
				<polygon class="st2" points="54.7,27.2 43.4,27.2 43.4,27.2 54.7,40.9 				"/>
				<linearGradient id="SVGID_4_" gradientUnits="userSpaceOnUse" x1="47.61" y1="15.6311" x2="50.1137" y2="21.8279">
					<stop  offset="0" style="stop-color:#E0BC62"/>
					<stop  offset="1" style="stop-color:#9E8651"/>
				</linearGradient>
				<path class="st3" d="M52.1,19.2L49,15.1l-3.1,4.1l3.1,3.1L52.1,19.2z M49,17.6l1.1,1.4L49,20.1L48,19L49,17.6z"/>
				<linearGradient id="SVGID_5_" gradientUnits="userSpaceOnUse" x1="51.6296" y1="19.1844" x2="54.0659" y2="25.2146">
					<stop  offset="0" style="stop-color:#E0BC62"/>
					<stop  offset="1" style="stop-color:#9E8651"/>
				</linearGradient>
				<polygon class="st4" points="54.7,25 54.7,17.9 49.6,23.1 51.5,25 				"/>
				<linearGradient id="SVGID_6_" gradientUnits="userSpaceOnUse" x1="43.4461" y1="17.9169" x2="46.3312" y2="25.0577">
					<stop  offset="0" style="stop-color:#E0BC62"/>
					<stop  offset="1" style="stop-color:#9E8651"/>
				</linearGradient>
				<polygon class="st5" points="48.4,23.1 43.4,17.9 43.4,25 46.6,25 				"/>
				<linearGradient id="SVGID_7_" gradientUnits="userSpaceOnUse" x1="48.5875" y1="23.8367" x2="49.2082" y2="25.373">
					<stop  offset="0" style="stop-color:#E0BC62"/>
					<stop  offset="1" style="stop-color:#9E8651"/>
				</linearGradient>
				<polygon class="st6" points="47.8,25 50.2,25 49,23.7 				"/>
			</g>
		</g>
	</g>
</g>
<g>
	<g>
		<path class="st7" d="M21.7,43.1c0.2,0,0.4,0,0.6,0.1c0.2,0.1,0.3,0.2,0.4,0.4c0.2,0.3,0.3,0.7,0.3,1.1v0.4v0.6h-4.2V45v-0.3
			c0-0.5,0.1-0.8,0.3-1c0.1-0.1,0.2-0.2,0.4-0.3c0.1-0.1,0.3-0.1,0.4-0.1c0.2,0,0.5,0.1,0.8,0.3c0-0.1,0.1-0.1,0.2-0.2
			c0.1-0.1,0.3-0.2,0.4-0.3C21.3,43.1,21.5,43.1,21.7,43.1z M19.3,45h1.3c0-0.1-0.1-0.3-0.1-0.4c-0.1-0.2-0.2-0.4-0.3-0.5
			c-0.1-0.1-0.2-0.2-0.4-0.2c-0.2,0-0.3,0.1-0.3,0.1c-0.1,0.2-0.1,0.5-0.1,0.7V45z M21.7,43.7c-0.2,0-0.4,0.1-0.5,0.2
			c-0.1,0.1-0.2,0.2-0.2,0.3c0,0.1,0.1,0.1,0.1,0.2c0.1,0.2,0.2,0.5,0.2,0.6h1.1v-0.3c0-0.4-0.1-0.6-0.2-0.8
			C22,43.8,21.9,43.7,21.7,43.7z"/>
		<path class="st7" d="M22.6,41.4c-0.1,0.2-0.3,0.3-0.4,0.4C22,41.9,21.7,42,21.5,42h-2.8v-0.7h2.8c0.2,0,0.4-0.1,0.6-0.3
			c0.1-0.2,0.2-0.4,0.2-0.6c0-0.2-0.1-0.5-0.2-0.6c-0.1-0.2-0.3-0.3-0.6-0.3h-2.8v-0.7h2.8c0.2,0,0.4,0.1,0.6,0.1
			c0.2,0.1,0.3,0.2,0.4,0.4c0.2,0.3,0.3,0.6,0.3,1C22.9,40.8,22.8,41.2,22.6,41.4z"/>
		<path class="st7" d="M20.2,36.9l2.7,0.1l0,0.7l-4.4-0.2l3-2.5l-2.7-0.1l0-0.7l4.4,0.2L20.2,36.9z"/>
		<path class="st7" d="M22.3,29.7l1.1,0.2l0.1,0.2c0,0,0,0,0,0c0,0,0,0,0,0c0,0,0,0,0,0c0,0,0,0,0,0c0,0,0,0,0,0c0,0,0,0,0,0
			c0,0,0,0,0,0c0,0,0,0,0,0c0,0,0,0,0,0c0,0,0,0,0,0c0,0,0,0,0,0c0,0,0,0,0,0c0,0,0,0,0,0s0,0,0,0c0,0,0,0,0,0
			c0.1,0.3,0.1,0.5,0,0.8c0,0,0,0,0,0c0,0,0,0,0,0l0,0c0,0,0,0,0,0c0,0.2-0.1,0.4-0.2,0.6c0,0,0,0,0,0c0,0,0,0,0,0.1
			c0,0,0,0.1,0,0.1c0,0.1-0.1,0.1-0.1,0.2c-0.1,0.1-0.3,0.3-0.4,0.4c-0.2,0.1-0.5,0.3-0.7,0.3c-0.2,0-0.4,0.1-0.6,0
			c-0.1,0-0.1,0-0.2,0c0,0-0.1,0-0.1,0c-0.2-0.1-0.5-0.2-0.7-0.3c-0.2-0.2-0.4-0.3-0.6-0.6c-0.1-0.2-0.3-0.5-0.3-0.7
			c-0.1-0.3-0.1-0.5,0-0.8c0,0,0,0,0,0l0,0c0,0,0,0,0,0c0,0,0,0,0,0c0,0,0,0,0,0c0.1-0.2,0.2-0.5,0.3-0.7c0,0,0,0,0,0c0,0,0,0,0,0
			c0,0,0,0,0,0l0.8,0.2c-0.1,0.1-0.2,0.2-0.2,0.2c-0.1,0.1-0.1,0.2-0.1,0.2c0,0,0,0,0,0c0,0,0,0,0,0c0,0,0,0,0,0c0,0,0,0,0,0
			c0,0,0,0,0,0.1c0,0,0,0,0,0c0,0,0,0,0,0c0,0,0,0,0,0c0,0,0,0,0,0c0,0,0,0,0,0c0,0,0,0,0,0c0,0,0,0,0,0c0,0,0,0,0,0c0,0,0,0,0,0
			c0,0,0,0,0,0c0,0,0,0,0,0c-0.1,0.3,0,0.5,0.1,0.8c0,0,0,0,0,0c0,0.1,0.1,0.2,0.1,0.3c0,0,0,0.1,0.1,0.1c0,0,0,0,0,0
			c0,0,0.1,0.1,0.1,0.1c0,0,0,0,0,0c0,0,0,0,0,0c0,0,0,0,0,0c0.1,0.1,0.2,0.2,0.4,0.3c0,0,0,0,0,0c0.1,0,0.1,0,0.2,0.1
			c0,0,0,0,0.1,0c0,0,0,0,0.1,0c0,0,0,0,0.1,0c0.1,0,0.2,0,0.3,0c0.2,0,0.5-0.1,0.7-0.2c0.3-0.2,0.5-0.5,0.6-0.9c0,0,0,0,0,0
			c0,0,0,0,0,0c0,0,0,0,0,0c0,0,0,0,0,0c0,0,0,0,0,0c0,0,0,0,0,0c0,0,0,0,0,0c0,0,0,0,0,0c0,0,0,0,0,0c0,0,0-0.1,0-0.1c0,0,0,0,0,0
			c0,0,0,0,0,0c0,0,0,0,0,0c0,0,0,0,0,0c0,0,0,0,0,0c0,0,0,0,0,0c0-0.1,0-0.2,0-0.2c0,0,0,0,0,0l-0.8-0.2L22,31.2L21.4,31l0.3-1.4
			L22.3,29.7z"/>
		<path class="st7" d="M24,26.7l-0.5,1.4l0.7,0.6L24,29.4l-3.5-3.2l4.7-0.2L25,26.7L24,26.7z M23.4,26.7l-1.4,0l1,0.9L23.4,26.7z"/>
		<path class="st7" d="M26.7,23.1l-0.8,1.5l-0.3,0.6l-3.7-2l0.3-0.6l3.2,1.7l0.8-1.5L26.7,23.1z"/>
		<path class="st7" d="M27.5,21.6c-0.2,0.1-0.5,0.2-0.8,0.3c-0.3,0-0.5,0-0.8,0c-0.3-0.1-0.5-0.2-0.7-0.3c-0.2-0.2-0.4-0.4-0.6-0.6
			c-0.1-0.2-0.2-0.5-0.3-0.8c0-0.3,0-0.5,0-0.8c0.1-0.3,0.2-0.5,0.3-0.7c0.2-0.2,0.4-0.4,0.6-0.6c0.2-0.1,0.5-0.2,0.7-0.3
			c0.3,0,0.5,0,0.8,0c0.3,0.1,0.5,0.2,0.8,0.3c0.2,0.2,0.4,0.4,0.6,0.6c0.1,0.2,0.2,0.5,0.3,0.7c0,0.3,0,0.5,0,0.8
			c-0.1,0.3-0.2,0.5-0.3,0.8C28,21.3,27.8,21.5,27.5,21.6z M25.1,20.1c0.1,0.4,0.3,0.7,0.6,0.9c0.3,0.2,0.7,0.3,1.1,0.3
			c0.4-0.1,0.7-0.3,0.9-0.6c0.2-0.3,0.3-0.7,0.3-1.1s-0.3-0.7-0.6-0.9c-0.3-0.2-0.7-0.3-1.1-0.3s-0.7,0.3-0.9,0.6
			C25.1,19.3,25,19.7,25.1,20.1z"/>
		<path class="st7" d="M32.6,16.5l-2.5-1.1l0.9,2.5L26.7,16l0.5-0.5l2.7,1.2L29.3,15L29,14.2l0.8,0.4l1.7,0.8l-1.1-2.8l0.5-0.5
			L32.6,16.5z"/>
		<path class="st7" d="M42.9,10.9l-0.6,0.2l-0.6-1.7l-1.6,0.5l0.6,1.7l-0.6,0.2l-1.3-4l0.6-0.2L40,9.3l1.6-0.5L41,7.1l0.6-0.2
			L42.9,10.9z"/>
		<path class="st7" d="M45.2,10.2c-0.3-0.1-0.5-0.2-0.7-0.3S44,9.5,43.9,9.3s-0.2-0.5-0.3-0.8c0-0.3,0-0.6,0-0.8
			C43.7,7.4,43.8,7.2,44,7c0.2-0.2,0.4-0.4,0.6-0.5c0.2-0.1,0.5-0.2,0.8-0.3c0.3,0,0.6,0,0.8,0c0.3,0.1,0.5,0.2,0.7,0.3
			c0.2,0.2,0.4,0.4,0.5,0.6c0.1,0.2,0.2,0.5,0.3,0.8c0,0.3,0,0.6,0,0.8c-0.1,0.3-0.2,0.5-0.3,0.7C47.2,9.7,47,9.9,46.8,10
			c-0.2,0.1-0.5,0.2-0.8,0.3C45.7,10.3,45.4,10.3,45.2,10.2z M44.5,7.4c-0.2,0.3-0.3,0.7-0.3,1.1c0.1,0.4,0.3,0.7,0.6,0.9
			c0.3,0.2,0.7,0.3,1.1,0.3c0.4-0.1,0.7-0.3,0.9-0.6C47,8.8,47.1,8.4,47.1,8c-0.1-0.4-0.3-0.7-0.6-0.9c-0.3-0.2-0.7-0.3-1.1-0.3
			C45.1,6.9,44.7,7.1,44.5,7.4z"/>
		<path class="st7" d="M51.4,6.4l-1.1,0l0,3.6l-0.7,0l0-3.6l-1.1,0l0-0.6l2.9,0L51.4,6.4z"/>
		<path class="st7" d="M53.3,7.7l1.5,0.2l-0.1,0.6l-1.5-0.2l-0.2,1.3l1.8,0.2l-0.1,0.6L53,10.1l-0.6-0.1l0.5-4.1L53.5,6l1.8,0.2
			l-0.1,0.6l-1.8-0.2L53.3,7.7z"/>
		<path class="st7" d="M58.2,11.2l-1.7-0.4l-0.6-0.2l1-4l0.6,0.2l-0.9,3.5l1.7,0.4L58.2,11.2z"/>
		<path class="st7" d="M66.9,15.8l-0.6-0.4l0-1.8l-0.4-0.3l-0.8,1.2l-0.5-0.4l2.4-3.4l0.4,0.3l0.6,0.4c0.4,0.3,0.6,0.7,0.6,0.9
			c0,0.3-0.1,0.7-0.3,1c-0.2,0.3-0.5,0.5-0.8,0.6c-0.1,0-0.4,0-0.6,0L66.9,15.8z M66.7,13.2c0.2,0.2,0.4,0.2,0.6,0.2
			c0.2,0,0.4-0.2,0.5-0.4c0.1-0.1,0.2-0.3,0.2-0.6c0-0.2-0.1-0.4-0.4-0.5l-0.5-0.3l-0.9,1.3L66.7,13.2z"/>
		<path class="st7" d="M69.7,15l1.1,1l-0.4,0.4l-1.1-1l-0.9,0.9l1.4,1.3l-0.4,0.4L68,16.8l-0.5-0.4l2.8-3.1l0.5,0.4l1.4,1.3
			l-0.4,0.4l-1.4-1.3L69.7,15z"/>
		<path class="st7" d="M72.2,20c-0.4,0.2-0.9,0.1-1.2-0.2c-0.1-0.1-0.1-0.1-0.2-0.2c-0.1-0.1-0.2-0.3-0.2-0.4
			c-0.1-0.3-0.1-0.6,0-0.9l0.6,0.1c0,0.2,0,0.4,0,0.5c0,0.1,0.1,0.2,0.2,0.3c0.2,0.1,0.4,0.2,0.5,0.1c0.2-0.1,0.2-0.3,0.2-0.4
			c0-0.3,0-0.7,0-0.7l0-0.7c0-0.2,0.1-0.4,0.2-0.6c0.1-0.2,0.2-0.3,0.4-0.3c0.2-0.1,0.4-0.1,0.6-0.1c0.2,0,0.4,0.1,0.5,0.2
			c0.2,0.1,0.3,0.3,0.4,0.5c0.1,0.2,0.1,0.5,0,0.7l-0.6-0.1c0.1-0.3-0.1-0.5-0.2-0.6c-0.1-0.1-0.3-0.1-0.4-0.1
			c-0.1,0-0.2,0.1-0.2,0.4l-0.1,1c0,0.1,0,0.3,0,0.4c0,0.2-0.1,0.5-0.2,0.6C72.5,19.8,72.4,19.9,72.2,20z"/>
		<path class="st7" d="M76.6,21.6l-0.6-1l-3,2l-0.4-0.6l3-2l-0.6-1l0.5-0.3l1.6,2.5L76.6,21.6z"/>
		<path class="st7" d="M75.5,25.5l-0.6-1.3l-1,0.1l-0.3-0.6l4.7-0.3l-3.1,3.5l-0.3-0.6L75.5,25.5z M76,25.1l0.9-1l-1.4,0.1L76,25.1z
			"/>
		<path class="st7" d="M75.9,27.8c0.1-0.2,0.2-0.4,0.3-0.5c0.2-0.1,0.3-0.3,0.6-0.3l2.6-0.8l0.2,0.6l-2.6,0.8
			c-0.2,0.1-0.4,0.2-0.5,0.4c-0.1,0.2-0.1,0.4,0,0.7c0.1,0.2,0.2,0.4,0.4,0.5c0.2,0.1,0.4,0.1,0.6,0.1l2.6-0.8l0.2,0.6L77.7,30
			C77.5,30,77.2,30,77,30c-0.2,0-0.4-0.1-0.5-0.2c-0.3-0.2-0.5-0.5-0.6-0.9S75.7,28.1,75.9,27.8z"/>
		<path class="st7" d="M77,34.4l-0.1-0.7l1.2-1.3l-0.1-0.5l-1.4,0.2l-0.1-0.6l4.1-0.6l0.1,0.5l0.1,0.7c0.1,0.5-0.1,0.9-0.2,1.1
			c-0.2,0.3-0.5,0.4-0.9,0.5c-0.4,0.1-0.7,0-1-0.2c-0.1-0.1-0.3-0.2-0.4-0.4L77,34.4z M78.7,32.4c0,0.3,0.2,0.5,0.3,0.6
			c0.2,0.1,0.4,0.1,0.6,0.1c0.2,0,0.4-0.1,0.5-0.3c0.1-0.2,0.2-0.4,0.1-0.6l-0.1-0.6l-1.6,0.2L78.7,32.4z"/>
		<path class="st7" d="M78,37.5l0-1.5l-0.9-0.3l0-0.7l4.4,1.7l-4.3,1.9l0-0.7L78,37.5z M78.6,37.3l1.3-0.5l-1.3-0.5L78.6,37.3z"/>
		<path class="st7" d="M79.8,40.3h-2.7v-0.7h4.4l-2.9,2.6h2.7v0.7h-4.4L79.8,40.3z"/>
		<path class="st7" d="M80.7,46.9v-1.1h-3.6v-0.7h3.6v-1.1h0.6v2.9H80.7z"/>
	</g>
	<g>
		<path class="st7" d="M22.5,64.4l0.2,1.7l-0.7,0.1l-0.2-1.7l-1.4,0.2l0.3,2.1l-0.7,0.1l-0.3-2.1l-0.1-0.7l4.6-0.7l0.1,0.7l0.3,2.1
			l-0.6,0.1l-0.3-2.1L22.5,64.4z"/>
		<path class="st7" d="M21.5,71.7l1.3-1.8l-2.1-0.6l-0.3-0.9l2.9,0.8l1.6-2.1l0.3,0.9l-1.1,1.4l1.7,0.5l0.3,0.9l-2.5-0.7l-1.8,2.4
			L21.5,71.7z"/>
		<path class="st7" d="M27,72.6l0.4,0.7c0.3,0.5,0.2,1,0.1,1.2c-0.1,0.4-0.4,0.6-0.8,0.8c-0.4,0.2-0.8,0.3-1.1,0.2
			c-0.3-0.1-0.7-0.3-1-0.8l-0.3-0.6l-1.4,0.7l-0.3-0.6l4.1-2.2L27,72.6z M26.4,74.8c0.2-0.1,0.4-0.2,0.5-0.5c0.1-0.2,0-0.5-0.1-0.7
			L26.5,73l-1.6,0.8l0.3,0.6c0.1,0.3,0.3,0.4,0.5,0.5C26,75,26.2,74.9,26.4,74.8z"/>
		<path class="st7" d="M26.5,80.4l-1.2-1.6l-0.4-0.6l3.8-2.8l0.4,0.6l-3.2,2.4L27,80L26.5,80.4z"/>
		<path class="st7" d="M28.4,82.2c-0.1-0.3-0.2-0.6-0.2-0.9c0-0.3,0-0.6,0.2-0.9c0.1-0.3,0.3-0.6,0.5-0.8c0.2-0.2,0.5-0.4,0.8-0.5
			c0.3-0.1,0.6-0.2,0.9-0.2c0.3,0,0.6,0,0.9,0.2c0.3,0.1,0.6,0.3,0.8,0.5c0.2,0.2,0.4,0.5,0.5,0.8c0.1,0.3,0.2,0.6,0.2,0.9
			c0,0.3-0.1,0.6-0.2,0.9c-0.1,0.3-0.3,0.6-0.5,0.8c-0.2,0.2-0.5,0.4-0.8,0.5c-0.3,0.1-0.6,0.2-0.9,0.2c-0.3,0-0.6,0-0.9-0.2
			c-0.3-0.1-0.6-0.3-0.8-0.5C28.7,82.8,28.5,82.5,28.4,82.2z M30.5,79.7c-0.4,0-0.8,0.2-1.1,0.5c-0.3,0.3-0.5,0.7-0.4,1.1
			c0,0.4,0.2,0.8,0.5,1.1c0.3,0.3,0.7,0.5,1.1,0.4c0.4,0,0.8-0.2,1.1-0.5c0.3-0.3,0.5-0.7,0.4-1.1c0-0.4-0.2-0.8-0.5-1.1
			S30.9,79.7,30.5,79.7z"/>
		<path class="st7" d="M34.9,87.6l-0.7-0.4l-0.1-2l-0.5-0.3l-0.9,1.3l-0.6-0.4l2.5-3.9l0.5,0.3l0.6,0.4c0.5,0.3,0.7,0.7,0.7,1
			c0.1,0.4,0,0.8-0.3,1.1c-0.2,0.4-0.6,0.6-0.9,0.7c-0.2,0-0.4,0.1-0.7,0L34.9,87.6z M34.6,84.7c0.3,0.2,0.5,0.2,0.7,0.2
			c0.3-0.1,0.4-0.3,0.5-0.4c0.1-0.2,0.2-0.4,0.2-0.7c0-0.2-0.2-0.4-0.4-0.6L35,82.8l-1,1.5L34.6,84.7z"/>
		<path class="st7" d="M38.2,86.1l1.6,0.7l-0.3,0.6l-1.6-0.7L37.3,88l1.9,0.8L39,89.5l-1.9-0.8l-0.7-0.3l1.9-4.3l0.7,0.3l1.9,0.8
			l-0.3,0.6L38.7,85L38.2,86.1z"/>
		<path class="st7" d="M44,91l-0.8-0.2l-0.7-1.8l-0.5-0.1l-0.4,1.5l-0.7-0.2l1.2-4.5l0.6,0.2l0.7,0.2c0.6,0.2,0.9,0.5,1,0.7
			c0.2,0.3,0.2,0.7,0.1,1.1c-0.1,0.4-0.3,0.7-0.6,0.9c-0.1,0.1-0.3,0.2-0.6,0.2L44,91z M42.7,88.3c0.3,0.1,0.5,0,0.7-0.1
			c0.2-0.1,0.3-0.4,0.4-0.6c0-0.2,0.1-0.4,0-0.7c-0.1-0.2-0.3-0.3-0.6-0.4l-0.6-0.2l-0.4,1.7L42.7,88.3z"/>
		<path class="st7" d="M51.6,87.5l-1.3,0l0,4l-0.7,0l0-4l-1.3,0l0-0.7l3.3,0L51.6,87.5z"/>
		<path class="st7" d="M56.7,90.8l-0.7,0.1l-0.3-2l-1.8,0.3l0.3,2l-0.7,0.1l-0.8-4.6l0.7-0.1l0.3,2l1.8-0.3l-0.3-2l0.7-0.1
			L56.7,90.8z"/>
		<path class="st7" d="M58.5,87.4l1.6-0.6l0.2,0.6L58.7,88l0.5,1.4l2-0.7l0.2,0.6l-2,0.7l-0.7,0.2l-1.5-4.4l0.7-0.2l2-0.7l0.2,0.6
			l-2,0.7L58.5,87.4z"/>
		<path class="st7" d="M64.5,84.4l1.7,2.5l-0.6,0.4l-2.8-4.1l4.2,1l-1.7-2.5l0.6-0.4l2.8,4L64.5,84.4z"/>
		<path class="st7" d="M71.4,81.3l-1.2,1.2l0.4,1l-0.6,0.6l-2-4.9l4.9,2l-0.6,0.6L71.4,81.3z M70.7,81.1l-1.4-0.6l0.6,1.4L70.7,81.1
			z"/>
		<path class="st7" d="M72.2,75.6l-0.8,1l3.2,2.4l-0.4,0.6L71,77.2l-0.8,1l-0.5-0.4l2-2.6L72.2,75.6z"/>
		<path class="st7" d="M76.3,75.8C76,75.9,75.8,76,75.6,76c-0.2,0-0.5-0.1-0.7-0.2l-2.7-1.4l0.3-0.7l2.7,1.4c0.2,0.1,0.5,0.1,0.7,0
			c0.2-0.1,0.4-0.3,0.5-0.5c0.1-0.2,0.2-0.5,0.1-0.7c0-0.2-0.2-0.4-0.4-0.5l-2.7-1.4l0.3-0.7l2.8,1.4c0.2,0.1,0.4,0.3,0.6,0.5
			c0.1,0.2,0.2,0.4,0.3,0.6c0.1,0.4,0,0.8-0.2,1.2C76.9,75.3,76.6,75.6,76.3,75.8z"/>
		<path class="st7" d="M79.6,68.4l-0.2,0.8l-1.9,0.7l-0.2,0.5l1.5,0.5l-0.2,0.7l-4.5-1.4l0.2-0.6l0.2-0.7c0.2-0.6,0.5-0.9,0.8-1
			c0.3-0.2,0.7-0.2,1.1,0c0.4,0.1,0.7,0.4,0.9,0.7c0.1,0.1,0.2,0.4,0.2,0.6L79.6,68.4z M76.9,69.5c0.1-0.3,0.1-0.5,0-0.7
			c-0.1-0.2-0.4-0.3-0.5-0.4c-0.2-0.1-0.4-0.1-0.7,0c-0.2,0.1-0.3,0.3-0.4,0.6L75,69.6l1.7,0.5L76.9,69.5z"/>
		<path class="st7" d="M77.3,65.6l0.2-1.7l0.7,0.1L78,65.7l1.4,0.2l0.3-2.1l0.7,0.1L80.1,66L80,66.7l-4.6-0.7l0.1-0.7l0.3-2.1
			l0.6,0.1l-0.3,2.1L77.3,65.6z"/>
	</g>
	<circle class="st7" cx="20.8" cy="54.3" r="1.4"/>
	<circle class="st7" cx="35.5" cy="11.8" r="0.7"/>
	<circle class="st7" cx="62.5" cy="11.1" r="0.7"/>
	<circle class="st7" cx="79.1" cy="54.3" r="1.4"/>
</g>
<rect x="19.9" y="98" class="st7" width="1.7" height="10.8"/>
<polygon class="st7" points="25.5,97.8 25.5,108.7 27.2,108.7 27.2,102.2 32.9,109 32.9,98 31.2,98 31.2,104.6 "/>
<path class="st7" d="M37.6,108.7l0.9-2.5h2.6l0.8,2.5h1.8l-4-11.2l-3.9,11.2H37.6z M39.6,102.1l0.9,2.8h-1.8L39.6,102.1z"/>
<polygon class="st7" points="62.4,107.2 59.3,107.2 59.3,98 57.6,98 57.6,108.7 62.4,108.7 "/>
<path class="st7" d="M66.6,106.3h2.6l0.8,2.5h1.8l-4-11.2l-3.8,11.2h1.7L66.6,106.3z M67.9,102.1l0.9,2.8H67L67.9,102.1z"/>
<path class="st7" d="M76.3,103.8l3,4.9h2l-3-4.7c0.9-0.2,2.2-1.3,2.2-2.8c0-2.2-1.6-3.1-3.6-3.1h-2.3v10.7h1.7V103.8z M76.3,99.6
	h0.7c1.3,0,1.8,0.8,1.8,1.6c0,0.8-0.4,1.7-2,1.7h-0.5C76.3,102.9,76.3,99.6,76.3,99.6z"/>
<polygon class="st8" points="54.6,93.9 52.4,96.6 52.4,96.5 52.4,93.2 51.1,94.5 50.1,93.1 49.1,94.5 47.8,93.2 47.8,96.5 
	47.8,96.6 45.6,93.9 45.6,109.6 48.9,109.6 48.9,106.2 54.6,113.2 "/>
<g>
	<g>
		<polygon class="st9" points="51.6,102.3 46.4,96.1 46.4,107.4 46.4,107.4 46.4,108.7 46.4,108.7 46.4,108.7 48,108.7 48,100.5 
			51.6,104.8 		"/>
		<polygon class="st9" points="53.9,96.1 52.2,98 52.2,106.5 48.7,102.3 48.7,104.8 53.9,111 53.9,99.9 53.9,99.9 		"/>
	</g>
	<g>
		<polygon class="st9" points="48.7,97.9 51.6,101.4 51.6,97.3 48.7,97.3 		"/>
		<path class="st9" d="M50.1,94.5l-0.8,1l0.8,0.8l0.9-0.8L50.1,94.5z M50.1,95.7l-0.3-0.2l0.3-0.4l0.3,0.4L50.1,95.7z"/>
		<polygon class="st9" points="50.3,96.5 50.8,97 51.6,97 51.6,95.2 		"/>
		<polygon class="st9" points="49.9,96.5 48.7,95.2 48.7,97 49.4,97 		"/>
		<polygon class="st9" points="50.4,97 50.1,96.6 49.8,97 		"/>
	</g>
</g>
<circle class="st7" cx="20.8" cy="95.6" r="1"/>
<text transform="matrix(1.4444 0 0 1 57.2305 113.1465)" class="st10 st11 st12">H O T E L</text>
</svg>
