<?xml version="1.0" encoding="utf-8"?>
<!-- Generator: Adobe Illustrator 22.1.0, SVG Export Plug-In . SVG Version: 6.00 Build 0)  -->
<svg version="1.1" id="katman_1" xmlns="http://www.w3.org/2000/svg" xmlns:xlink="http://www.w3.org/1999/xlink" x="0px" y="0px"
	 viewBox="0 0 107 21.9" style="enable-background:new 0 0 107 21.9;" xml:space="preserve">
<style type="text/css">
	.st0{fill:#1D1D1B;}
	.st1{fill:#C59A3D;}
	.st2{fill:#FFFFFF;}
	.st3{fill:#008D36;}
	.st4{font-family:'RobotoCondensed-Bold';}
	.st5{font-size:5.0331px;}
</style>
<title>Asset 16</title>
<rect x="1.2" y="5.7" class="st0" width="1.8" height="11.4"/>
<polygon class="st0" points="7.1,5.4 7.1,17 8.9,17 8.9,10.1 14.9,17.3 14.9,5.7 13.1,5.7 13.1,12.6 "/>
<path class="st0" d="M19.9,17l0.9-2.6h2.8l0.8,2.6h1.9L22.1,5.2L18,17H19.9z M22,10l1,3h-1.9L22,10z"/>
<polygon class="st0" points="46.1,15.4 42.8,15.4 42.8,5.7 41,5.7 41,17 46.1,17 "/>
<path class="st0" d="M50.6,14.4h2.8l0.8,2.6h1.9L51.9,5.2l-4,11.9h1.8L50.6,14.4z M51.9,10l1,3h-1.9L51.9,10z"/>
<path class="st0" d="M60.8,11.8L64,17h2.1l-3.2-5c1-0.2,2.3-1.4,2.3-3c0-2.3-1.7-3.3-3.8-3.3H59V17h1.8V11.8z M60.8,7.3h0.7
	c1.4,0,1.9,0.8,1.9,1.7c0,0.8-0.4,1.8-2.1,1.8h-0.5V7.3z"/>
<polygon class="st1" points="37.9,1.3 35.5,4.2 35.5,4.1 35.5,0.6 34.2,1.9 33.1,0.5 32,1.9 30.7,0.6 30.7,4.1 30.7,4.2 28.3,1.3 
	28.3,17.9 31.8,17.9 31.8,14.3 37.9,21.7 "/>
<g>
	<g>
		<polygon class="st2" points="34.7,10.2 29.2,3.6 29.2,15.6 29.2,15.6 29.2,17 29.2,17 29.2,17 30.9,17 30.9,8.3 34.7,12.8 		"/>
		<polygon class="st2" points="37.1,3.6 35.3,5.7 35.3,14.7 31.6,10.2 31.6,12.8 37.1,19.4 37.1,7.7 37.1,7.7 		"/>
	</g>
	<g>
		<polygon class="st2" points="31.6,5.5 34.7,9.3 34.7,4.9 31.6,4.9 		"/>
		<path class="st2" d="M33.1,1.9L32.3,3l0.8,0.8L34,3L33.1,1.9z M33.1,3.2L32.8,3l0.3-0.4L33.4,3L33.1,3.2z"/>
		<polygon class="st2" points="33.3,4.1 33.8,4.6 34.7,4.6 34.7,2.7 		"/>
		<polygon class="st2" points="32.9,4.1 31.6,2.7 31.6,4.6 32.4,4.6 		"/>
		<polygon class="st2" points="33.4,4.6 33.1,4.2 32.8,4.6 		"/>
	</g>
</g>
<circle class="st0" cx="2.1" cy="3.1" r="1.1"/>
<text transform="matrix(1.4444 0 0 1 40.6548 21.6845)" class="st3 st4 st5">H O T E L</text>
</svg>
