<?xml version="1.0" encoding="utf-8"?>
<!-- Generator: Adobe Illustrator 22.1.0, SVG Export Plug-In . SVG Version: 6.00 Build 0)  -->
<svg version="1.1" id="Layer_1" xmlns="http://www.w3.org/2000/svg" xmlns:xlink="http://www.w3.org/1999/xlink" x="0px" y="0px"
	 viewBox="0 0 267.8 330.9" style="enable-background:new 0 0 267.8 330.9;" xml:space="preserve">
<style type="text/css">
	.st0{fill:url(#SVGID_1_);}
	.st1{fill:url(#SVGID_2_);}
	.st2{fill:url(#SVGID_3_);}
	.st3{fill:url(#SVGID_4_);}
	.st4{fill:url(#SVGID_5_);}
	.st5{fill:url(#SVGID_6_);}
	.st6{fill:url(#SVGID_7_);}
</style>
<g>
	<g>
		<g>
			<g>
				<g>
					
						<linearGradient id="SVGID_1_" gradientUnits="userSpaceOnUse" x1="88" y1="171.45" x2="147.7" y2="171.45" gradientTransform="matrix(1 0 0 -1 0 330)">
						<stop  offset="0" style="stop-color:#E1BD62"/>
						<stop  offset="1" style="stop-color:#9F8750"/>
					</linearGradient>
					<polygon class="st0" points="147.7,157.6 88,85.6 88,215.9 88,231.5 88,231.5 107.4,231.5 107.4,136.4 147.7,185.3 					"/>
					
						<linearGradient id="SVGID_2_" gradientUnits="userSpaceOnUse" x1="114.2" y1="158.55" x2="173.9" y2="158.55" gradientTransform="matrix(1 0 0 -1 0 330)">
						<stop  offset="0" style="stop-color:#E1BD62"/>
						<stop  offset="1" style="stop-color:#9F8750"/>
					</linearGradient>
					<polygon class="st1" points="154.5,206.4 114.2,157.5 114.2,185.1 173.9,257.3 173.9,130.1 173.9,130.1 173.9,85.6 
						154.5,108.8 					"/>
					
						<linearGradient id="SVGID_3_" gradientUnits="userSpaceOnUse" x1="114.2" y1="205.6" x2="147.7437" y2="205.6" gradientTransform="matrix(1 0 0 -1 0 330)">
						<stop  offset="0" style="stop-color:#E1BD62"/>
						<stop  offset="1" style="stop-color:#9F8750"/>
					</linearGradient>
					<polygon class="st2" points="147.7,104.1 114.2,104.1 114.2,104.2 147.7,144.7 					"/>
					
						<linearGradient id="SVGID_4_" gradientUnits="userSpaceOnUse" x1="121.8" y1="251.2" x2="140.119" y2="251.2" gradientTransform="matrix(1 0 0 -1 0 330)">
						<stop  offset="0" style="stop-color:#E1BD62"/>
						<stop  offset="1" style="stop-color:#9F8750"/>
					</linearGradient>
					<path class="st3" d="M140.1,80.3L131,68.1l-9.2,12.2l9.2,9.2L140.1,80.3z M131,75.6l3.2,4.3l-3.2,3.2l-3.2-3.2L131,75.6z"/>
					
						<linearGradient id="SVGID_5_" gradientUnits="userSpaceOnUse" x1="132.7239" y1="242.9" x2="147.7239" y2="242.9" gradientTransform="matrix(1 0 0 -1 0 330)">
						<stop  offset="0" style="stop-color:#E1BD62"/>
						<stop  offset="1" style="stop-color:#9F8750"/>
					</linearGradient>
					<polygon class="st4" points="147.7,97.5 147.7,76.7 132.7,91.9 138.3,97.5 					"/>
					
						<linearGradient id="SVGID_6_" gradientUnits="userSpaceOnUse" x1="114.2" y1="242.9" x2="129.2" y2="242.9" gradientTransform="matrix(1 0 0 -1 0 330)">
						<stop  offset="0" style="stop-color:#E1BD62"/>
						<stop  offset="1" style="stop-color:#9F8750"/>
					</linearGradient>
					<polygon class="st5" points="129.2,91.9 114.2,76.7 114.2,97.5 123.7,97.5 					"/>
					
						<linearGradient id="SVGID_7_" gradientUnits="userSpaceOnUse" x1="127.4245" y1="234.45" x2="134.5033" y2="234.45" gradientTransform="matrix(1 0 0 -1 0 330)">
						<stop  offset="0" style="stop-color:#E1BD62"/>
						<stop  offset="1" style="stop-color:#9F8750"/>
					</linearGradient>
					<polygon class="st6" points="127.4,97.5 134.5,97.5 131,93.6 					"/>
				</g>
			</g>
		</g>
	</g>
	<g>
		<path d="M46.7,150.8c0.6,0,1.2,0.1,1.7,0.4c0.5,0.3,0.9,0.7,1.2,1.2c0.6,0.9,0.8,2.1,0.8,3.5v1.1v1.7H37.7v-2v-0.8
			c0-1.4,0.3-2.5,0.8-3.2c0.3-0.4,0.7-0.7,1.1-0.9c0.4-0.2,0.8-0.3,1.3-0.3c0.7,0,1.5,0.2,2.4,1c0.1-0.2,0.3-0.4,0.5-0.6
			c0.4-0.4,0.8-0.7,1.3-0.9C45.5,150.9,46.1,150.8,46.7,150.8z M39.5,156.7h3.9c-0.1-0.4-0.2-0.9-0.4-1.3c-0.3-0.6-0.6-1.1-0.9-1.5
			c-0.3-0.4-0.7-0.5-1.1-0.5c-0.6,0-0.9,0.2-1,0.4c-0.4,0.5-0.4,1.4-0.4,2.1L39.5,156.7L39.5,156.7z M46.7,152.6
			c-0.7,0-1.2,0.2-1.6,0.7c-0.3,0.3-0.5,0.6-0.6,1c0.1,0.2,0.2,0.3,0.2,0.5c0.3,0.7,0.5,1.4,0.6,2h3.5V156c0-1.1-0.2-2-0.6-2.5
			C47.8,152.8,47.3,152.6,46.7,152.6z"/>
		<path d="M49.5,145.7c-0.4,0.5-0.8,0.9-1.4,1.1c-0.6,0.3-1.2,0.4-2,0.4h-8.5v-2h8.5c0.8,0,1.3-0.3,1.7-0.8s0.6-1.2,0.6-2
			c0-0.7-0.2-1.5-0.6-2c-0.4-0.5-1-0.8-1.7-0.8h-8.5v-2h8.5c0.7,0,1.4,0.2,2,0.4c0.5,0.3,1,0.7,1.4,1.1c0.7,0.8,1,2,1,3.2
			C50.5,143.7,50.1,144.9,49.5,145.7z"/>
		<path d="M42.2,131.6l8.2,0.3l-0.1,2l-13.4-0.5l9.1-7.7l-8.2-0.3l0.1-2l13.4,0.5L42.2,131.6z"/>
		<path d="M48.4,109.6l3.4,0.7l0.2,0.5l0,0v0.1c0,0,0,0,0,0.1c0,0,0,0,0,0.1c0,0,0,0,0,0.1c0,0,0,0,0,0.1s0,0,0,0.1v0.1
			c0,0,0,0,0,0.1s0,0.1,0,0.1l0,0l0,0v0.1v0.1l0,0c0.2,0.8,0.2,1.6,0.1,2.4l0,0v0.1l0,0c0,0.1,0,0.1,0,0.2c-0.1,0.7-0.4,1.3-0.7,1.9
			l0,0c0,0.1-0.1,0.1-0.1,0.2c-0.1,0.1-0.1,0.2-0.2,0.2c-0.1,0.2-0.3,0.4-0.4,0.5c-0.4,0.5-0.8,0.9-1.3,1.2c-0.7,0.5-1.4,0.8-2.3,1
			c-0.6,0.1-1.3,0.2-1.9,0.1c-0.2,0-0.4-0.1-0.6-0.1c-0.1,0-0.2,0-0.3-0.1c-0.7-0.2-1.4-0.5-2-0.9c-0.7-0.5-1.3-1.1-1.7-1.8
			c-0.5-0.7-0.8-1.4-0.9-2.3c-0.2-0.8-0.2-1.7,0-2.5c0-0.1,0-0.1,0-0.2l0,0c0-0.1,0-0.1,0-0.1l0,0c0-0.1,0-0.1,0-0.1
			c0.2-0.7,0.5-1.4,1-2l0,0c0,0,0-0.1,0.1-0.1l0,0l2.3,0.5c-0.3,0.2-0.5,0.5-0.7,0.7s-0.3,0.5-0.4,0.7l0,0c0,0,0,0,0,0.1
			c0,0,0,0,0,0.1l0,0c0,0.1,0,0.1-0.1,0.2l0,0c0,0,0,0,0,0.1l0,0v0.1c0,0,0,0,0,0.1v0.1l0,0c0,0,0,0,0,0.1v0.1l0,0v0.1
			c-0.2,0.8-0.1,1.6,0.2,2.3v0.1c0.1,0.3,0.3,0.6,0.5,0.9c0.1,0.1,0.1,0.2,0.2,0.3l0,0c0.1,0.1,0.2,0.2,0.3,0.3l0,0l0.1,0.1
			c0,0,0,0,0.1,0c0.4,0.3,0.7,0.6,1.2,0.8l0,0c0.2,0.1,0.3,0.1,0.5,0.2c0.1,0,0.1,0,0.2,0c0.1,0,0.1,0,0.2,0.1c0.1,0,0.1,0,0.2,0
			c0.3,0,0.7,0.1,1,0c0.8-0.1,1.5-0.3,2.1-0.7c1-0.6,1.7-1.6,1.9-2.8V114c0,0,0,0,0-0.1v-0.1c0,0,0,0,0-0.1c0,0,0,0,0-0.1v-0.1l0,0
			v-0.1l0,0c0-0.1,0-0.3,0-0.4l0,0v-0.1c0,0,0,0,0-0.1c0,0,0,0,0-0.1v-0.1l0,0c0-0.3-0.1-0.5-0.1-0.8l0,0l-2.3-0.5l-0.5,2.4
			l-1.8-0.4l0.9-4.3L48.4,109.6z"/>
		<path d="M53.9,100.2l-1.6,4.3l2.2,2l-0.8,2.1L43,98.7l14.5-0.6l-0.8,2.1H53.9z M51.9,100.3l-4.2,0.1l3.1,2.8L51.9,100.3z"/>
		<path d="M62.3,89.3L59.8,94l-0.9,1.8l-11.3-6l0.9-1.8l9.7,5.2l2.5-4.7L62.3,89.3z"/>
		<path d="M64.7,84.7c-0.7,0.4-1.5,0.7-2.3,0.8c-0.8,0.1-1.6,0.1-2.5-0.1c-0.8-0.2-1.6-0.6-2.3-1.1s-1.3-1.2-1.7-1.9
			c-0.4-0.7-0.7-1.5-0.8-2.3s-0.1-1.6,0.1-2.5c0.2-0.8,0.6-1.6,1.1-2.3s1.2-1.3,1.9-1.7c0.7-0.4,1.5-0.7,2.3-0.8
			c0.8-0.1,1.6-0.1,2.5,0.1c0.8,0.2,1.6,0.6,2.3,1.1s1.3,1.2,1.7,1.9c0.4,0.7,0.7,1.5,0.8,2.3c0.1,0.8,0.1,1.7-0.1,2.5
			s-0.6,1.6-1.1,2.3C66.1,83.7,65.5,84.2,64.7,84.7z M57.1,79.8c0.2,1.2,0.8,2.2,1.7,2.9c0.9,0.7,2.1,1,3.3,0.8s2.2-0.8,2.9-1.7
			s1-2.1,0.8-3.3c-0.2-1.2-0.8-2.2-1.7-2.9c-0.9-0.7-2.1-1-3.3-0.8s-2.2,0.8-2.9,1.7S56.9,78.7,57.1,79.8z"/>
		<path d="M80.4,68.9l-7.7-3.4l2.9,7.8l-13.4-5.9l1.6-1.5l8.4,3.8l-2-5.4l-1-2.6l2.6,1.2l5.3,2.4l-3.2-8.5l1.6-1.5L80.4,68.9z"/>
		<path d="M112.1,51.5l-1.9,0.6l-1.7-5.3l-4.9,1.6l1.7,5.3l-1.9,0.6l-4-12.2l1.9-0.6l1.7,5.2l4.9-1.6l-1.7-5.2l1.9-0.6L112.1,51.5z"
			/>
		<path d="M119,49.6c-0.8-0.2-1.6-0.6-2.2-1.1c-0.7-0.5-1.2-1.1-1.7-1.8c-0.4-0.7-0.7-1.5-0.9-2.4c-0.1-0.9-0.1-1.7,0.1-2.6
			c0.2-0.8,0.6-1.5,1.1-2.2s1.1-1.2,1.8-1.7s1.5-0.7,2.4-0.9s1.7-0.1,2.6,0.1c0.8,0.2,1.5,0.6,2.2,1c0.7,0.5,1.2,1.1,1.7,1.8
			c0.4,0.7,0.7,1.5,0.9,2.4s0.1,1.7-0.1,2.5s-0.6,1.6-1,2.2c-0.5,0.7-1.1,1.2-1.8,1.7c-0.7,0.4-1.6,0.7-2.4,0.9
			C120.7,49.8,119.8,49.8,119,49.6z M117,40.7c-0.7,0.9-1,2.1-0.8,3.3s0.8,2.2,1.7,2.9c0.9,0.7,2.1,1,3.3,0.8
			c1.2-0.2,2.2-0.8,2.9-1.7c0.7-0.9,1-2.1,0.8-3.3s-0.8-2.2-1.7-2.9s-2.1-1-3.3-0.8C118.8,39.2,117.7,39.8,117,40.7z"/>
		<path d="M138.2,37.7h-3.5v11h-2v-11h-3.5v-1.8h9.1L138.2,37.7z"/>
		<path d="M144.1,41.7l4.6,0.6l-0.2,1.8l-4.6-0.6l-0.5,3.9l5.6,0.7l-0.2,1.8l-5.7-0.7l-2-0.3l1.6-12.7l2,0.3l5.7,0.7l-0.2,1.8
			l-5.6-0.7L144.1,41.7z"/>
		<path d="M159.2,52.5l-5.2-1.4l-1.9-0.5l3.2-12.4l1.9,0.5l-2.8,10.7l5.2,1.3L159.2,52.5z"/>
		<path d="M186,66.8l-1.9-1.3L184,60l-1.2-0.8l-2.5,3.5l-1.6-1.2l7.4-10.5l1.4,1l1.7,1.2c1.4,1,1.8,2.1,1.9,2.9c0.1,1-0.2,2.1-0.9,3
			c-0.7,1-1.6,1.6-2.6,1.8c-0.5,0.1-1.1,0.1-1.8-0.1L186,66.8z M185.3,58.8c0.7,0.5,1.3,0.6,1.9,0.5c0.7-0.1,1.2-0.7,1.5-1.1
			c0.3-0.4,0.6-1.1,0.6-1.8c-0.1-0.6-0.4-1.1-1.1-1.6l-1.5-1l-2.8,4L185.3,58.8z"/>
		<path d="M194.6,64.2l3.4,3.2l-1.2,1.3l-3.4-3.2l-2.7,2.9l4.2,3.9l-1.2,1.3l-4.2-3.9l-1.5-1.4l8.7-9.4l1.5,1.4l4.2,3.9l-1.2,1.3
			l-4.2-3.9L194.6,64.2z"/>
		<path d="M202.2,79.7c-1.2,0.5-2.7,0.3-3.8-0.6c-0.2-0.2-0.4-0.4-0.6-0.6c-0.3-0.4-0.6-0.9-0.8-1.3c-0.3-0.8-0.3-1.7-0.1-2.7l2,0.4
			c-0.1,0.6-0.1,1.1,0,1.6c0.1,0.4,0.4,0.7,0.7,1c0.5,0.4,1.2,0.6,1.7,0.3c0.6-0.2,0.7-0.9,0.7-1.4c0-0.8,0.1-2.1,0.2-2.2l0.1-2.2
			c0-0.7,0.2-1.3,0.5-1.7c0.3-0.5,0.7-0.9,1.2-1.1s1.1-0.3,1.7-0.2c0.6,0.1,1.1,0.3,1.5,0.7c0.5,0.4,0.9,0.9,1.1,1.5
			c0.2,0.7,0.3,1.4,0.1,2.2l-2-0.4c0.2-1-0.2-1.5-0.5-1.8c-0.4-0.3-0.8-0.4-1.2-0.2c-0.2,0.1-0.5,0.4-0.6,1.1l-0.2,3
			c0,0.4-0.1,1-0.1,1.3c0,0.7-0.2,1.4-0.6,1.9C203.3,79,202.8,79.5,202.2,79.7z"/>
		<path d="M215.8,84.6l-1.9-3l-9.3,6l-1.1-1.7l9.3-6l-1.9-3l1.5-1l5,7.6L215.8,84.6z"/>
		<path d="M212.6,96.7l-2-4.1l-3,0.2l-1-2l14.5-0.8l-9.6,10.9l-1-2L212.6,96.7z M213.9,95.2l2.8-3.1l-4.2,0.3L213.9,95.2z"/>
		<path d="M213.6,103.7c0.2-0.6,0.5-1.1,1-1.5c0.5-0.5,1.1-0.8,1.7-1l8.1-2.6l0.6,1.9l-8.1,2.6c-0.7,0.2-1.2,0.7-1.4,1.3
			c-0.2,0.6-0.2,1.3,0,2s0.7,1.3,1.2,1.7c0.5,0.4,1.2,0.4,1.9,0.2l8.1-2.6l0.6,1.9l-8.1,2.6c-0.7,0.2-1.3,0.3-2,0.2
			c-0.6-0.1-1.2-0.3-1.7-0.7c-0.9-0.6-1.6-1.6-1.9-2.7S213.2,104.7,213.6,103.7z"/>
		<path d="M217.2,123.9l-0.4-2.2l3.8-3.9l-0.2-1.5l-4.3,0.7l-0.3-2l12.7-2l0.3,1.7l0.3,2.1c0.3,1.7-0.3,2.8-0.8,3.4
			c-0.6,0.8-1.6,1.3-2.8,1.5s-2.2,0-3.1-0.6c-0.4-0.3-0.9-0.7-1.2-1.3L217.2,123.9z M222.4,117.8c0.1,0.8,0.5,1.4,1,1.7
			c0.6,0.4,1.3,0.4,1.8,0.3s1.2-0.3,1.7-0.8c0.4-0.5,0.5-1.1,0.4-1.9l-0.3-1.8l-4.8,0.8L222.4,117.8z"/>
		<path d="M220.2,133.6l-0.1-4.6l-2.8-1v-2.2l13.5,5.4l-13.3,5.8v-2.2L220.2,133.6z M222,132.9l3.9-1.6l-3.9-1.5V132.9z"/>
		<path d="M225.7,142.1h-8.3v-2h13.4l-8.8,8.1h8.2v2h-13.4L225.7,142.1z"/>
		<path d="M228.5,162.5V159h-11v-2h11v-3.5h1.8v9.1h-1.8V162.5z"/>
	</g>
	<g>
		<path d="M50.5,218.5l1.2,5.1l-2,0.5l-1.2-5.1l-4.4,1l1.4,6.2l-2,0.5l-1.4-6.2l-0.5-2.2l14.1-3.2l0.5,2.2l1.4,6.2l-2,0.5l-1.4-6.2
			L50.5,218.5z"/>
		<path d="M49.1,241.3l3.7-5.7l-6.7-1.3l-1.1-2.6l9.2,1.8l4.4-6.8l1.1,2.6l-3,4.7l5.5,1.1l1.1,2.6l-8-1.6l-5,7.9L49.1,241.3z"/>
		<path d="M66.3,242.6l1.3,2c1,1.6,1,3,0.8,3.8c-0.3,1.1-1,2.1-2.2,2.8s-2.3,1-3.4,0.8c-0.9-0.1-2.1-0.6-3.2-2.2l-1.1-1.7l-4.1,2.7
			l-1.2-1.9l12.1-7.9L66.3,242.6z M65.1,249.5c0.5-0.3,1.1-0.9,1.3-1.6c0.2-0.7,0-1.4-0.5-2.2l-1.1-1.7l-4.6,3l1.1,1.7
			c0.5,0.8,1.1,1.2,1.8,1.3C63.9,250.2,64.6,249.8,65.1,249.5z"/>
		<path d="M66.7,266.7l-4-4.5l-1.5-1.7L72,251l1.5,1.7l-9.3,8.2l4,4.5L66.7,266.7z"/>
		<path d="M73,271.7c-0.4-0.8-0.7-1.7-0.8-2.7s0-1.8,0.2-2.8c0.3-0.9,0.7-1.8,1.3-2.5s1.4-1.4,2.2-1.8c0.8-0.4,1.7-0.7,2.7-0.8
			c0.9-0.1,1.8,0,2.7,0.3c0.9,0.3,1.8,0.7,2.5,1.3c0.8,0.6,1.4,1.4,1.8,2.2c0.4,0.8,0.7,1.7,0.8,2.6c0.1,0.9,0,1.9-0.3,2.7
			c-0.3,0.9-0.7,1.8-1.3,2.5c-0.6,0.8-1.4,1.4-2.2,1.8c-0.8,0.4-1.7,0.7-2.6,0.8c-0.9,0.1-1.9,0-2.8-0.2c-0.9-0.3-1.8-0.7-2.5-1.3
			S73.5,272.5,73,271.7z M78.9,263.4c-1.3,0.1-2.5,0.8-3.3,1.8s-1.2,2.3-1.1,3.6s0.8,2.5,1.8,3.3s2.3,1.2,3.6,1.1s2.5-0.8,3.3-1.8
			s1.2-2.3,1.1-3.6s-0.8-2.5-1.8-3.3S80.2,263.2,78.9,263.4z"/>
		<path d="M94.6,286.4l-2.2-1.2l-0.9-6l-1.5-0.8l-2.3,4.3l-2-1.1l6.8-12.7l1.7,0.9l2.1,1.1c1.7,0.9,2.3,2.1,2.5,3
			c0.3,1.1,0.1,2.3-0.5,3.5s-1.5,2-2.6,2.4c-0.5,0.2-1.2,0.3-2,0.2L94.6,286.4z M92.7,277.6c0.8,0.4,1.6,0.5,2.2,0.3
			c0.8-0.3,1.2-0.9,1.5-1.4s0.6-1.3,0.4-2.1c-0.2-0.7-0.7-1.2-1.5-1.6l-1.8-1l-2.6,4.8L92.7,277.6z"/>
		<path d="M104.2,281l5,1.7l-0.7,1.9l-5-1.7l-1.5,4.2l6,2.1l-0.7,1.9l-6.1-2.1l-2.1-0.7l4.7-13.6l2.1,0.7l6.1,2.1l-0.7,1.9l-6-2.1
			L104.2,281z"/>
		<path d="M132,282.6l-3.9-0.3l-1.1,12.4l-2.3-0.2l1.1-12.4l-4-0.3l0.2-2l10.2,0.9L132,282.6z"/>
		<path d="M146.6,294.2l-2.2,0.2l-0.5-6.2l-5.7,0.5l0.5,6.2l-2.2,0.2l-1.1-14.4l2.2-0.2l0.5,6.1l5.7-0.5l-0.5-6.1l2.2-0.2
			L146.6,294.2z"/>
		<path d="M153,284.2l5.1-1.3l0.5,2l-5.1,1.3l1.1,4.3l6.2-1.6l0.5,2l-6.2,1.6l-2.2,0.5l-3.5-14l2.2-0.5l6.2-1.6l0.5,2l-6.2,1.6
			L153,284.2z"/>
		<path d="M172.4,276.5l4.5,8.1l-2,1.1l-7.4-13.2l12.8,4.2l-4.5-8.1l2-1.1l7.4,13.1L172.4,276.5z"/>
		<path d="M194.3,268.9l-3.9,3.3l1.1,3.2l-1.9,1.6l-4.9-15.6l14.5,7.5l-1.9,1.6L194.3,268.9z M192.3,267.9l-4.2-2.2l1.5,4.5
			L192.3,267.9z"/>
		<path d="M198.2,251.4l-2.6,3l9.3,8.2l-1.5,1.7l-9.3-8.2l-2.6,3l-1.5-1.3l6.8-7.6L198.2,251.4z"/>
		<path d="M210.7,253.2c-0.7,0.2-1.3,0.3-2,0.3c-0.7-0.1-1.4-0.3-2.1-0.8l-8.1-5.1l1.2-1.9l8.1,5.1c0.7,0.5,1.4,0.5,2.1,0.3
			c0.7-0.2,1.3-0.8,1.7-1.5s0.7-1.5,0.6-2.2c-0.1-0.7-0.5-1.3-1.2-1.8l-8.1-5.1l1.2-1.9l8.1,5.1c0.7,0.4,1.2,1,1.6,1.6
			c0.3,0.6,0.6,1.2,0.6,1.9c0.1,1.2-0.2,2.5-0.9,3.6C212.8,252,211.8,252.8,210.7,253.2z"/>
		<path d="M223,231.2l-1,2.4l-5.9,1.5l-0.6,1.5l4.5,1.8l-0.8,2.1l-13.4-5.4l0.7-1.8l0.9-2.2c0.7-1.8,1.8-2.5,2.7-2.8
			c1.1-0.4,2.3-0.3,3.5,0.2s2.2,1.3,2.6,2.3c0.2,0.5,0.4,1.1,0.4,2L223,231.2z M214.4,234c0.3-0.9,0.4-1.6,0.1-2.2
			c-0.3-0.7-1.1-1.1-1.6-1.3s-1.3-0.4-2.1-0.1c-0.6,0.2-1.1,0.8-1.5,1.6l-0.8,1.9l5.1,2.1L214.4,234z"/>
		<path d="M216.6,222.3l1.2-5.1l2,0.5l-1.2,5.1l4.4,1l1.4-6.2l2,0.5l-1.4,6.2l-0.5,2.2l-14.1-3.2l0.5-2.2l1.4-6.2l2,0.5l-1.4,6.2
			L216.6,222.3z"/>
	</g>
	<circle cx="44.1" cy="185.2" r="4.3"/>
	<circle cx="89.1" cy="54.2" r="2.2"/>
	<circle cx="172.6" cy="52.1" r="2.2"/>
	<circle cx="223.5" cy="185.2" r="4.3"/>
</g>
</svg>
